<?xml version="1.0" standalone="no"?>
<!DOCTYPE svg PUBLIC "-//W3C//DTD SVG 20010904//EN"
 "http://www.w3.org/TR/2001/REC-SVG-20010904/DTD/svg10.dtd">
<svg version="1.0" xmlns="http://www.w3.org/2000/svg"
 width="500.000000pt" height="500.000000pt" viewBox="0 0 1472.000000 1472.000000"
 preserveAspectRatio="xMidYMid meet">

<g transform="translate(0.000000,1472.000000) scale(0.100000,-0.100000)"
fill="#fff" stroke="none">
<path d="M7263 14352 c-22 -9 -50 -25 -60 -34 -11 -10 -24 -18 -29 -18 -5 0
-22 -21 -39 -45 -16 -25 -33 -45 -37 -45 -5 0 -8 -9 -8 -19 0 -11 -4 -23 -10
-26 -5 -3 -10 -19 -10 -36 0 -16 -4 -29 -10 -29 -12 0 -14 -213 -1 -238 5 -9
14 -35 21 -57 21 -67 121 -175 161 -175 5 0 9 -4 9 -10 0 -5 13 -10 29 -10 17
0 33 -4 36 -10 3 -6 50 -10 106 -10 59 0 99 4 99 10 0 6 14 10 30 10 17 0 30
5 30 10 0 6 7 10 17 10 30 0 122 80 123 108 0 6 5 12 10 12 6 0 10 9 10 20 0
11 5 20 10 20 6 0 10 11 10 24 0 13 5 26 10 28 14 4 15 277 1 291 -6 6 -11 19
-11 29 0 10 -3 18 -8 18 -4 0 -13 12 -19 28 -20 44 -85 106 -138 132 -43 21
-66 25 -170 27 -96 2 -128 -1 -162 -15z m247 -115 c37 -18 89 -73 104 -110 38
-91 26 -250 -24 -322 -44 -64 -87 -85 -172 -85 -77 0 -114 15 -158 68 -43 49
-50 70 -57 161 -5 70 -2 100 12 145 19 60 68 121 115 144 46 21 134 21 180 -1z"/>
<path d="M8290 14281 c0 -11 -4 -23 -10 -26 -5 -3 -10 -31 -10 -61 0 -30 -4
-54 -10 -54 -5 0 -10 -19 -11 -42 0 -24 -4 -65 -10 -93 -19 -102 -30 -171 -36
-220 -2 -27 -9 -54 -14 -59 -5 -6 -9 -34 -9 -63 0 -29 -4 -53 -10 -53 -5 0
-10 -13 -10 -29 0 -28 3 -30 48 -36 26 -3 57 -7 70 -9 28 -4 28 -2 43 89 12
79 24 149 40 233 5 31 13 80 15 107 3 28 10 54 15 60 5 5 9 30 9 55 0 25 6 55
14 65 13 18 18 19 60 7 26 -6 64 -12 86 -12 21 0 42 -4 45 -10 3 -5 28 -10 55
-10 27 0 52 -4 55 -10 3 -5 19 -10 36 -10 28 0 29 2 31 45 1 25 2 53 2 63 1
13 -10 18 -54 24 -30 3 -100 14 -155 23 -55 10 -120 20 -145 22 -25 3 -49 9
-54 14 -6 5 -27 9 -48 9 -31 0 -38 -4 -38 -19z"/>
<path d="M5935 14235 c-77 -15 -105 -25 -105 -36 0 -5 -7 -9 -16 -9 -8 0 -21
-6 -28 -12 -7 -7 -25 -22 -39 -33 -15 -11 -27 -25 -27 -32 0 -7 -4 -13 -8 -13
-5 0 -17 -19 -27 -42 -9 -24 -21 -51 -26 -60 -12 -24 -12 -184 1 -222 5 -17
17 -57 26 -88 9 -32 21 -58 25 -58 5 0 9 -7 9 -16 0 -18 98 -114 117 -114 7 0
13 -4 13 -10 0 -5 8 -10 18 -10 10 0 23 -5 28 -10 14 -14 195 -15 220 -2 10 6
36 18 57 27 46 20 127 95 127 118 0 9 5 19 10 22 6 3 10 19 10 36 0 16 5 29
10 29 6 0 10 16 10 35 l0 35 -65 0 c-36 0 -68 0 -72 1 -5 0 -11 -17 -16 -38
-12 -63 -49 -123 -74 -123 -7 0 -13 -4 -13 -10 0 -5 -9 -10 -20 -10 -10 0 -31
-5 -45 -12 -21 -9 -31 -9 -46 0 -10 7 -27 12 -38 12 -22 0 -101 76 -101 97 0
7 -4 13 -10 13 -5 0 -10 14 -10 30 0 17 -4 30 -9 30 -5 0 -12 19 -15 43 -17
107 -17 142 -5 181 17 53 78 116 113 116 14 0 26 5 26 10 0 6 20 10 45 10 25
0 45 -4 45 -10 0 -5 7 -10 16 -10 10 0 32 -16 51 -35 33 -34 63 -46 63 -25 0
6 4 10 9 10 20 0 103 43 95 49 -5 3 -22 23 -37 43 -34 47 -96 83 -165 97 -29
6 -56 10 -60 10 -4 -1 -34 -7 -67 -14z"/>
<path d="M9233 14093 c-7 -15 -13 -35 -13 -45 0 -10 -4 -18 -10 -18 -5 0 -10
-13 -10 -30 0 -16 -4 -30 -10 -30 -5 0 -10 -7 -10 -16 0 -15 -42 -149 -60
-189 -21 -49 -80 -229 -80 -246 0 -11 -4 -19 -10 -19 -5 0 -10 -11 -10 -25 0
-14 -4 -25 -10 -25 -5 0 -10 -13 -10 -30 0 -25 4 -30 24 -30 13 0 26 -4 28 -9
2 -5 21 -11 43 -13 35 -3 40 0 43 20 2 12 8 22 13 22 5 0 9 11 9 24 0 14 5 28
10 31 6 3 10 17 10 31 0 13 5 24 10 24 6 0 10 11 10 24 0 14 5 28 10 31 6 3
10 14 10 25 0 10 7 20 15 24 8 3 15 1 15 -4 0 -6 14 -10 30 -10 17 0 30 -4 30
-10 0 -5 11 -10 24 -10 14 0 27 -4 30 -9 3 -4 39 -14 80 -21 84 -14 153 -3
190 32 11 10 23 18 28 18 4 0 8 7 8 15 0 8 3 15 8 15 8 0 32 49 32 67 0 7 5
13 10 13 6 0 10 33 10 80 0 47 -4 80 -10 80 -5 0 -10 6 -10 14 0 17 -59 76
-77 76 -7 0 -13 5 -13 10 0 6 -9 10 -20 10 -11 0 -20 5 -20 10 0 6 -11 10 -25
10 -14 0 -25 4 -25 8 0 4 -32 17 -71 27 -39 11 -73 23 -75 27 -3 5 -16 8 -30
8 -13 0 -24 5 -24 10 0 6 -13 10 -30 10 -16 0 -30 5 -30 10 0 20 -25 9 -37
-17z m187 -165 c0 -5 8 -8 17 -8 9 0 38 -9 63 -21 50 -23 80 -61 80 -102 0
-33 -37 -97 -56 -97 -8 0 -14 -4 -14 -10 0 -5 -18 -10 -39 -10 -22 0 -43 5
-46 10 -3 6 -17 10 -31 10 -13 0 -32 4 -42 9 -9 5 -32 15 -49 21 -25 9 -33 19
-33 36 0 13 5 24 10 24 6 0 10 11 10 25 0 14 5 25 10 25 6 0 10 14 10 30 0 17
5 30 10 30 6 0 10 8 10 18 0 31 17 40 55 28 19 -6 35 -14 35 -18z"/>
<path d="M4580 13793 c-40 -4 -53 -9 -132 -47 -32 -16 -58 -32 -58 -37 0 -5
-8 -9 -17 -9 -10 0 -29 -17 -43 -37 -14 -20 -30 -41 -35 -47 -6 -6 -17 -31
-25 -56 -18 -53 -18 -226 -1 -243 6 -6 11 -21 11 -34 0 -13 5 -23 10 -23 6 0
10 -9 10 -20 0 -11 5 -20 10 -20 6 0 10 -7 10 -15 0 -8 5 -15 10 -15 6 0 10
-6 10 -14 0 -7 21 -35 48 -63 41 -44 64 -60 134 -94 25 -12 205 -11 213 1 3 6
15 10 26 10 65 0 229 146 229 204 0 8 5 16 10 18 7 2 11 46 11 113 0 67 -4
111 -11 113 -5 2 -10 10 -10 18 0 19 -51 128 -61 132 -5 2 -9 8 -9 13 0 23
-126 129 -153 129 -7 0 -17 4 -22 9 -12 10 -116 19 -165 14z m92 -135 c21 -6
51 -23 66 -38 41 -41 72 -79 72 -90 0 -6 5 -10 10 -10 6 0 10 -9 10 -19 0 -11
4 -22 9 -25 4 -3 14 -33 21 -66 25 -119 -18 -210 -122 -258 -26 -12 -60 -22
-74 -22 -35 0 -104 21 -104 32 0 4 -5 8 -12 8 -16 0 -82 73 -100 112 -72 151
-69 237 12 317 67 66 130 84 212 59z"/>
<path d="M10315 13648 c-21 -18 -52 -47 -69 -63 -17 -17 -49 -44 -71 -60 -21
-17 -64 -54 -95 -82 -30 -29 -58 -53 -61 -53 -3 0 -32 -26 -65 -57 -33 -32
-78 -71 -99 -88 -22 -16 -54 -45 -73 -64 l-34 -34 34 -15 c18 -9 35 -20 36
-24 2 -4 12 -8 23 -8 10 0 19 -4 19 -10 0 -5 7 -10 15 -10 8 0 15 4 15 8 0 4
12 15 28 25 15 9 44 32 64 50 28 26 44 33 63 30 14 -3 25 -9 25 -13 0 -4 29
-20 65 -36 36 -16 65 -32 65 -36 0 -5 9 -8 20 -8 11 0 20 -3 20 -8 0 -4 10
-12 23 -17 21 -9 22 -15 21 -110 l-1 -100 57 -27 c32 -16 62 -28 69 -28 7 0
11 19 11 50 0 28 5 50 10 50 6 0 10 32 10 77 0 42 4 90 9 107 9 28 15 90 41
426 3 47 4 90 2 95 -3 10 -112 65 -129 65 -5 0 -27 -15 -48 -32z m35 -203 c0
-30 -4 -55 -10 -55 -6 0 -10 -30 -10 -69 0 -68 -15 -131 -30 -131 -5 0 -10 3
-12 8 -3 8 -109 62 -121 62 -11 0 -37 26 -37 37 0 4 16 22 36 38 19 17 66 60
102 97 37 37 70 67 75 68 4 0 7 -25 7 -55z"/>
<path d="M3610 13270 c0 -5 -9 -10 -19 -10 -11 0 -21 -3 -23 -7 -1 -5 -21 -17
-43 -28 -22 -11 -49 -28 -59 -37 -11 -10 -26 -18 -33 -18 -7 0 -13 -4 -13 -10
0 -5 -7 -10 -15 -10 -8 0 -15 -3 -15 -8 0 -4 -16 -16 -35 -26 -19 -11 -35 -23
-35 -28 0 -4 -9 -8 -20 -8 -11 0 -20 -4 -20 -8 0 -5 -11 -15 -25 -22 -31 -17
-31 -29 0 -66 14 -16 25 -35 25 -41 0 -7 5 -13 10 -13 6 0 10 -5 10 -10 0 -6
5 -16 10 -23 21 -25 60 -88 60 -97 0 -6 5 -10 10 -10 6 0 10 -6 10 -13 0 -7 9
-23 20 -35 11 -12 20 -25 20 -30 0 -5 11 -22 25 -38 14 -16 25 -35 25 -41 0
-7 5 -13 10 -13 6 0 10 -5 10 -10 0 -6 5 -16 10 -23 21 -25 60 -88 60 -97 0
-6 3 -10 8 -10 4 0 18 -18 32 -40 26 -42 46 -45 78 -14 7 8 18 14 23 14 5 0
19 9 31 20 12 11 28 20 35 20 7 0 13 5 13 10 0 6 7 10 15 10 8 0 15 4 15 8 0
5 18 17 40 27 22 10 40 22 40 27 0 4 7 8 15 8 8 0 15 3 15 8 0 4 17 18 38 32
48 32 83 68 102 103 17 33 17 180 1 185 -6 2 -11 10 -11 18 0 8 -4 14 -9 14
-5 0 -12 8 -15 18 -9 26 -94 62 -149 62 -40 0 -47 3 -47 19 0 11 5 23 10 26
17 10 11 79 -10 122 -19 40 -66 83 -89 83 -6 0 -11 5 -11 10 0 6 -28 10 -65
10 -37 0 -65 -4 -65 -10z m96 -144 c19 -20 34 -54 34 -78 0 -22 -58 -98 -74
-98 -9 0 -90 -54 -94 -62 -2 -5 -10 -8 -18 -8 -8 0 -14 -4 -14 -10 0 -24 -38
-8 -50 20 -7 17 -16 30 -21 30 -5 0 -9 7 -9 15 0 8 -4 15 -8 15 -9 0 -32 44
-32 60 0 5 18 19 40 31 22 13 40 26 40 31 0 4 6 8 14 8 8 0 16 3 18 8 2 4 25
19 53 34 50 27 96 29 121 4z m167 -238 c76 -44 89 -114 31 -172 -20 -20 -42
-36 -49 -36 -7 0 -15 -4 -17 -9 -5 -14 -116 -81 -133 -81 -16 0 -45 22 -45 35
0 9 -54 90 -62 93 -12 5 -9 52 2 52 6 0 20 9 32 20 12 11 28 20 35 20 7 0 13
4 13 9 0 5 20 17 45 28 25 10 45 21 45 26 0 4 9 7 20 7 11 0 20 5 20 10 0 14
36 12 63 -2z"/>
<path d="M11130 13230 c0 -10 -8 -22 -37 -55 -7 -7 -13 -18 -13 -24 0 -6 -4
-11 -10 -11 -5 0 -10 -7 -10 -15 0 -8 -4 -15 -10 -15 -5 0 -10 -6 -10 -14 0
-8 -4 -16 -8 -18 -12 -4 -82 -103 -82 -114 0 -5 -9 -16 -20 -24 -11 -8 -20
-19 -20 -25 0 -6 -11 -22 -25 -37 -14 -15 -25 -30 -25 -33 0 -3 -9 -15 -20
-27 -11 -12 -20 -28 -20 -35 0 -7 -4 -13 -9 -13 -5 0 -12 -8 -16 -19 -3 -10
-19 -33 -35 -50 -17 -17 -30 -38 -30 -46 0 -8 -5 -15 -10 -15 -6 0 0 -11 14
-25 14 -14 30 -25 36 -25 5 0 10 -4 10 -8 0 -5 11 -14 24 -22 21 -11 27 -10
40 3 9 9 16 18 16 22 0 3 11 21 25 39 14 18 25 37 25 42 0 5 9 16 20 24 11 8
20 20 20 26 0 7 4 14 8 16 4 2 18 20 31 41 31 51 51 49 115 -8 6 -6 32 -24 58
-40 27 -17 48 -33 48 -37 0 -5 4 -8 10 -8 5 0 21 -10 34 -21 21 -18 23 -24 13
-43 -7 -11 -19 -28 -28 -36 -8 -8 -24 -30 -34 -47 -11 -18 -23 -33 -27 -33 -4
0 -8 -8 -8 -18 0 -10 -9 -24 -20 -32 -11 -8 -20 -18 -20 -23 0 -5 -7 -15 -15
-23 -23 -24 -18 -52 13 -68 15 -8 37 -24 50 -36 l23 -22 20 20 c10 12 19 25
19 29 0 4 11 21 25 37 14 16 25 32 25 35 0 3 14 22 30 41 16 19 30 41 30 48 0
6 4 12 8 12 4 0 16 15 27 33 10 17 27 39 37 48 10 9 18 20 18 24 0 10 92 139
102 143 4 2 8 10 8 18 0 8 5 14 10 14 6 0 10 7 10 15 0 8 4 15 8 15 5 0 17 16
28 35 10 19 22 35 26 35 20 0 5 31 -24 51 -18 13 -35 26 -38 29 -3 4 -15 9
-27 12 -17 5 -28 -4 -54 -41 -18 -25 -36 -48 -39 -51 -4 -3 -9 -9 -11 -15 -12
-30 -76 -115 -87 -115 -11 0 -111 61 -138 85 -29 25 -51 41 -76 54 -34 17 -41
36 -23 55 8 8 15 20 15 27 0 6 8 19 18 28 10 9 27 31 37 49 11 17 23 32 27 32
4 0 8 6 8 13 0 7 9 23 20 35 21 22 27 62 9 62 -5 0 -27 11 -47 25 -38 26 -72
33 -72 15z"/>
<path d="M7245 12503 c-5 -197 -9 -437 -9 -533 l-1 -175 101 -3 101 -3 6 92
c4 51 7 141 7 201 l0 108 145 0 c248 0 361 45 420 167 10 21 22 46 26 55 5 10
9 62 9 116 0 101 -2 108 -64 221 -9 17 -16 21 -101 64 -58 29 -127 36 -431 44
l-201 4 -8 -358z m473 169 c9 -5 30 -15 47 -23 41 -20 75 -74 75 -119 0 -45
-22 -99 -48 -120 -46 -37 -62 -40 -202 -40 l-140 0 0 155 0 155 125 0 c69 0
133 -4 143 -8z"/>
<path d="M6305 12760 c-3 -5 -25 -10 -47 -10 -23 0 -55 -4 -72 -9 -28 -9 -106
-22 -236 -40 l-45 -6 2 -45 c3 -65 13 -132 23 -155 5 -11 11 -40 14 -65 6 -58
19 -132 51 -310 15 -80 29 -171 32 -202 3 -32 8 -58 13 -58 5 0 11 -26 13 -57
12 -127 20 -158 45 -161 12 -2 22 1 22 7 0 6 20 11 47 11 26 0 61 5 79 12 32
11 32 12 27 67 -3 31 -9 60 -14 66 -5 5 -9 33 -9 61 0 29 -4 56 -10 59 -5 3
-10 28 -10 55 0 27 -4 52 -10 55 -5 3 -10 14 -10 25 0 13 10 19 38 24 20 3 55
8 77 11 93 14 243 53 260 67 5 4 15 8 22 8 32 0 133 129 133 169 0 9 5 22 11
28 11 11 8 110 -6 168 -17 74 -98 195 -132 195 -7 0 -13 5 -13 10 0 6 -9 10
-20 10 -11 0 -20 5 -20 10 0 6 -48 10 -124 10 -73 0 -127 -4 -131 -10z m145
-180 c0 -5 5 -10 12 -10 16 0 58 -41 58 -57 0 -7 5 -13 10 -13 14 0 13 -96 -2
-123 -17 -33 -59 -67 -91 -74 -15 -3 -30 -10 -33 -14 -3 -5 -22 -9 -43 -9 -20
0 -41 -4 -46 -9 -8 -8 -81 -15 -122 -12 -6 1 -16 33 -23 74 -6 39 -15 86 -21
103 -15 49 -11 105 9 120 9 7 41 14 70 14 28 0 52 5 52 10 0 6 35 10 85 10 50
0 85 -4 85 -10z"/>
<path d="M2728 12632 c-48 -48 -128 -125 -178 -172 -51 -47 -107 -100 -126
-119 l-33 -34 34 -32 c19 -17 35 -37 35 -43 0 -26 26 -9 95 63 40 41 78 75 85
75 11 0 240 -225 240 -236 0 -2 30 -35 68 -73 37 -38 78 -83 92 -100 14 -16
31 -33 38 -36 8 -3 34 16 62 44 36 36 45 52 38 64 -4 9 -84 92 -176 185 -92
93 -186 191 -210 217 l-43 48 48 52 c27 29 55 53 63 54 8 1 23 12 32 26 18 23
17 24 -21 64 -22 23 -43 41 -48 40 -4 0 -47 -40 -95 -87z"/>
<path d="M8835 12631 c-11 -17 -23 -31 -27 -31 -5 0 -8 -5 -8 -10 0 -6 -11
-22 -25 -36 -14 -14 -25 -29 -25 -33 0 -4 -13 -22 -30 -39 -16 -18 -30 -34
-30 -38 0 -3 -6 -11 -12 -18 -33 -34 -58 -67 -58 -76 0 -6 -4 -10 -8 -10 -4 0
-15 -12 -24 -27 -20 -34 -46 -67 -75 -98 -13 -13 -23 -27 -23 -30 0 -3 -11
-17 -25 -31 -14 -14 -25 -28 -25 -33 0 -4 -16 -24 -35 -45 -19 -21 -35 -41
-35 -45 0 -3 -13 -19 -28 -36 -15 -16 -43 -52 -62 -80 -19 -27 -39 -55 -45
-61 -32 -35 -55 -65 -55 -74 0 -6 -4 -10 -10 -10 -5 0 -10 -4 -10 -10 0 -5 14
-10 30 -10 17 0 38 -4 48 -9 9 -5 43 -17 74 -26 52 -15 59 -15 73 -2 8 9 15
18 15 22 0 4 6 13 13 20 26 30 37 44 37 50 0 3 11 17 24 30 14 13 27 34 31 45
5 15 15 20 40 20 19 0 37 -4 40 -10 3 -5 17 -10 30 -10 13 0 27 -4 30 -10 3
-5 19 -10 35 -10 16 0 31 -4 34 -9 3 -5 20 -11 38 -14 76 -11 187 -50 192 -66
2 -9 7 -64 11 -122 4 -58 10 -110 13 -116 4 -6 41 -20 82 -32 41 -13 83 -27
92 -32 36 -19 41 -11 34 49 -12 104 -58 603 -85 915 -13 159 -17 168 -76 185
-28 7 -66 18 -85 23 -73 21 -74 21 -95 -10z m79 -414 c3 -83 9 -171 12 -194 5
-35 3 -44 -11 -49 -9 -4 -20 -2 -24 3 -3 6 -26 14 -51 18 -24 4 -51 11 -60 15
-8 5 -35 14 -60 20 -25 7 -51 14 -57 16 -20 5 -15 26 12 58 14 16 25 33 25 37
0 4 6 14 13 21 7 7 26 31 42 53 17 22 32 42 35 45 3 3 18 23 35 45 16 22 32
42 35 45 4 3 10 13 13 24 6 14 10 16 21 7 10 -8 15 -54 20 -164z"/>
<path d="M11958 12468 c-40 -44 -125 -134 -188 -198 -127 -130 -240 -255 -240
-265 0 -4 23 -29 52 -56 38 -35 55 -46 67 -39 9 4 37 11 64 15 26 4 50 11 53
16 3 5 20 9 39 9 19 0 37 5 40 10 3 6 22 10 41 10 19 0 34 5 34 10 0 6 10 10
22 10 12 0 35 4 52 9 125 38 196 51 196 37 0 -2 -32 -37 -70 -77 -39 -41 -113
-119 -165 -174 l-94 -99 50 -49 49 -48 53 55 c28 31 84 91 124 133 39 43 109
117 155 164 46 48 107 112 135 143 l53 56 -49 50 c-47 47 -85 63 -105 43 -7
-8 -90 -29 -154 -40 -18 -3 -35 -9 -38 -14 -3 -5 -21 -9 -40 -9 -19 0 -34 -4
-34 -10 0 -5 -16 -10 -35 -10 -19 0 -35 -4 -35 -10 0 -5 -12 -10 -26 -10 -14
0 -33 -4 -43 -9 -10 -6 -42 -13 -72 -17 l-54 -7 45 46 c25 24 63 65 85 89 22
25 77 84 123 132 45 48 82 93 82 100 0 14 -74 86 -89 86 -5 0 -43 -37 -83 -82z"/>
<path d="M5220 12460 c-57 -29 -150 -70 -160 -70 -6 0 -10 -4 -10 -10 0 -5 -9
-10 -20 -10 -11 0 -20 -4 -20 -10 0 -5 -11 -10 -25 -10 -14 0 -25 -4 -25 -10
0 -5 -7 -10 -15 -10 -18 0 -89 -32 -93 -42 -2 -5 -12 -8 -23 -8 -10 0 -19 -4
-19 -10 0 -5 -11 -10 -25 -10 -14 0 -25 -4 -25 -10 0 -5 -9 -10 -20 -10 -11 0
-20 -4 -20 -10 0 -5 -6 -10 -14 -10 -8 0 -41 -12 -75 -27 -48 -22 -61 -33 -61
-50 0 -13 5 -23 10 -23 6 0 10 -9 10 -20 0 -11 5 -20 10 -20 6 0 10 -7 10 -15
0 -8 4 -23 9 -33 31 -61 61 -129 61 -140 0 -6 5 -12 10 -12 6 0 10 -11 10 -25
0 -14 5 -25 10 -25 6 0 10 -9 10 -20 0 -11 5 -20 10 -20 6 0 10 -9 10 -19 0
-11 4 -22 9 -26 5 -3 12 -19 16 -35 4 -17 11 -30 16 -30 5 0 9 -9 9 -20 0 -11
5 -20 10 -20 6 0 10 -11 10 -25 0 -14 5 -25 10 -25 6 0 10 -9 10 -20 0 -11 5
-20 10 -20 6 0 10 -7 10 -15 0 -8 11 -38 25 -67 14 -28 25 -58 25 -65 0 -7 5
-13 10 -13 6 0 10 -9 10 -20 0 -11 5 -20 10 -20 6 0 10 -7 10 -15 0 -8 4 -23
10 -33 5 -9 19 -38 30 -65 17 -39 24 -46 38 -39 9 5 35 17 57 27 22 10 73 33
112 51 40 19 75 34 78 34 4 0 53 23 110 50 57 28 106 50 109 50 3 0 47 19 98
43 51 24 108 50 126 57 23 9 30 16 23 23 -6 6 -11 19 -11 29 0 10 -4 18 -10
18 -5 0 -10 9 -10 20 0 11 -4 20 -10 20 -5 0 -10 8 -10 18 0 31 -18 41 -53 28
-18 -6 -34 -14 -37 -17 -6 -7 -89 -45 -143 -66 -23 -9 -46 -20 -51 -25 -6 -4
-18 -8 -28 -8 -10 0 -18 -4 -18 -10 0 -5 -4 -10 -10 -10 -8 0 -75 -29 -177
-77 -39 -18 -48 -13 -72 40 -10 23 -33 73 -50 111 -41 92 -40 108 7 129 21 9
46 17 55 17 10 0 17 5 17 10 0 6 9 10 19 10 11 0 21 3 23 8 5 11 116 62 137
62 11 0 21 3 23 8 2 4 38 24 81 44 42 21 77 39 77 42 0 2 -13 35 -29 73 -21
49 -35 69 -50 71 -12 2 -21 -1 -21 -7 0 -6 -6 -11 -14 -11 -8 0 -31 -9 -53
-19 -21 -11 -54 -26 -73 -34 -89 -37 -100 -42 -100 -49 0 -5 -7 -8 -15 -8 -8
0 -23 -4 -33 -9 -30 -16 -126 -58 -149 -65 -17 -6 -23 -3 -23 8 0 9 -4 16 -10
16 -5 0 -10 6 -10 13 0 6 -16 45 -35 84 -36 73 -43 103 -25 103 9 0 104 40
142 61 10 5 24 9 32 9 8 0 16 4 18 8 4 10 107 58 158 75 22 6 40 15 40 19 0 5
9 8 20 8 11 0 20 4 20 8 0 4 16 14 35 21 27 9 35 18 35 37 0 13 -4 24 -10 24
-5 0 -10 9 -10 19 0 11 -4 23 -10 26 -5 3 -10 13 -10 21 0 17 -24 45 -37 43
-4 0 -24 -9 -43 -19z"/>
<path d="M9820 12291 c-11 -16 -20 -34 -20 -40 0 -6 -4 -11 -8 -11 -10 0 -33
-61 -27 -71 3 -4 40 -26 83 -50 42 -23 79 -46 80 -50 2 -5 12 -9 23 -9 10 0
19 -4 19 -9 0 -5 11 -12 25 -15 18 -5 25 -13 25 -30 0 -14 -3 -26 -7 -28 -5
-1 -21 -29 -38 -60 -16 -32 -33 -58 -37 -58 -5 0 -8 -9 -8 -20 0 -11 -4 -20
-10 -20 -5 0 -10 -7 -10 -15 0 -8 -3 -15 -8 -15 -4 0 -16 -20 -27 -45 -11 -25
-23 -45 -27 -45 -5 0 -8 -9 -8 -20 0 -11 -4 -20 -8 -20 -5 0 -26 -34 -48 -75
-21 -41 -42 -75 -46 -75 -5 0 -8 -7 -8 -15 0 -8 -4 -15 -10 -15 -5 0 -10 -9
-10 -20 0 -11 -3 -20 -7 -20 -5 0 -17 -19 -28 -43 -11 -23 -22 -44 -25 -47 -3
-3 -12 -18 -20 -35 -8 -16 -21 -36 -27 -43 -21 -22 -16 -30 55 -69 37 -20 69
-41 70 -45 8 -19 49 -7 63 20 8 15 16 29 19 32 3 3 18 31 35 63 16 31 33 57
37 57 4 0 8 9 8 20 0 11 5 20 10 20 6 0 10 7 10 15 0 8 5 15 10 15 6 0 10 9
10 20 0 11 4 20 9 20 5 0 13 10 17 23 3 12 15 34 26 49 24 35 98 168 105 191
3 9 9 17 14 17 5 0 9 7 9 15 0 8 5 15 10 15 6 0 10 9 10 20 0 11 4 20 10 20 5
0 12 11 16 25 3 14 9 25 13 25 3 0 12 14 19 30 17 38 41 38 95 2 23 -15 68
-41 99 -57 32 -17 58 -33 58 -37 0 -5 9 -8 20 -8 11 0 20 -6 20 -12 1 -7 8 1
17 17 9 17 19 32 22 35 3 3 16 26 28 52 l22 47 -29 13 c-17 7 -30 15 -30 19 0
3 -16 11 -35 19 -19 8 -35 17 -35 21 0 4 -10 11 -22 15 -13 3 -34 14 -48 24
-26 17 -148 85 -187 104 -13 6 -23 14 -23 19 0 4 -7 7 -15 7 -8 0 -15 5 -15
10 0 6 -9 10 -20 10 -11 0 -20 3 -20 8 0 4 -20 16 -45 27 -25 11 -45 23 -45
28 0 4 -7 7 -15 7 -8 0 -15 5 -15 10 0 6 -9 10 -20 10 -11 0 -20 4 -20 8 0 4
-20 18 -45 30 l-44 21 -21 -28z"/>
<path d="M2030 11883 c-30 -15 -64 -37 -75 -48 -35 -35 -95 -122 -95 -138 0
-8 -5 -17 -11 -19 -14 -5 -14 -211 1 -216 5 -2 10 -15 10 -28 0 -13 4 -24 9
-24 5 0 14 -14 22 -31 7 -18 22 -41 34 -53 52 -50 95 -86 105 -86 5 0 10 -4
10 -8 0 -5 19 -17 43 -28 23 -10 44 -21 47 -25 14 -18 151 -27 205 -14 40 9
92 33 118 53 45 37 77 70 77 80 0 6 3 12 8 14 4 2 18 23 32 48 21 38 25 58 25
132 0 56 -4 91 -13 100 -6 6 -12 18 -12 25 0 7 -10 24 -21 37 -18 21 -24 23
-43 13 -11 -7 -28 -20 -37 -29 -9 -10 -23 -18 -32 -18 -21 0 -29 -27 -12 -44
8 -8 15 -21 15 -30 0 -8 5 -18 10 -21 14 -9 12 -101 -2 -127 -40 -68 -99 -108
-162 -108 -39 0 -102 22 -127 44 -11 9 -23 16 -28 16 -12 0 -123 109 -144 142
-24 38 -23 149 0 186 27 41 60 72 78 72 8 0 15 5 15 10 0 14 107 13 112 -2 6
-17 28 0 28 23 0 10 5 19 10 19 6 0 10 9 10 20 0 11 5 20 11 20 6 0 9 12 7 27
-4 32 -26 41 -113 42 -46 1 -73 -5 -115 -26z"/>
<path d="M12788 11685 c-15 -14 -33 -25 -40 -25 -7 0 -19 -9 -26 -20 -7 -11
-19 -20 -27 -20 -8 0 -15 -4 -15 -8 0 -4 -14 -16 -32 -27 -43 -25 -90 -73
-105 -108 -20 -45 -16 -131 9 -185 12 -26 26 -48 30 -50 4 -2 8 -10 8 -17 0
-14 106 -115 121 -115 5 0 9 -5 9 -10 0 -14 -46 -60 -59 -60 -10 0 -34 -17
-65 -46 -6 -5 -26 -19 -43 -29 -18 -11 -33 -23 -33 -27 0 -4 -6 -8 -14 -8 -26
0 -29 -21 -7 -44 12 -12 21 -27 21 -32 0 -6 11 -21 24 -33 l24 -23 99 68 c54
37 103 73 110 79 6 7 35 27 65 46 29 18 55 37 56 41 2 5 9 8 16 8 6 0 18 9 26
20 8 11 19 20 24 20 5 0 24 11 42 25 18 14 36 25 41 25 5 0 15 9 23 20 8 11
18 20 23 20 5 0 23 11 41 25 18 14 38 25 44 25 7 0 12 5 12 10 0 6 -4 10 -10
10 -5 0 -10 7 -10 15 0 8 -4 15 -8 15 -5 0 -18 18 -31 40 -12 22 -27 40 -32
40 -5 0 -23 -13 -40 -30 -17 -16 -40 -32 -50 -35 -11 -4 -19 -11 -19 -16 0 -5
-8 -9 -18 -9 -10 0 -24 -9 -32 -20 -8 -11 -20 -20 -27 -20 -7 0 -13 -3 -13 -7
0 -11 -58 -43 -76 -43 -8 0 -27 8 -42 17 -24 16 -34 25 -72 70 -5 7 -10 17
-10 23 0 5 -4 10 -10 10 -5 0 -10 9 -10 20 0 11 -4 20 -10 20 -5 0 -10 14 -10
30 0 38 41 85 130 148 36 25 67 50 68 54 2 4 10 8 19 8 8 0 21 7 30 16 14 13
14 19 2 42 -8 15 -22 34 -31 43 -10 9 -18 21 -18 28 0 20 -45 12 -72 -14z"/>
<path d="M3965 11573 c-16 -2 -34 -9 -39 -14 -6 -5 -18 -9 -28 -9 -10 0 -18
-4 -18 -10 0 -5 -9 -10 -20 -10 -11 0 -20 -4 -20 -10 0 -5 -4 -10 -10 -10 -5
0 -32 -16 -59 -35 -26 -19 -51 -35 -55 -35 -11 0 -56 48 -56 60 0 20 -26 9
-66 -27 -23 -21 -53 -47 -68 -58 -33 -25 -33 -46 -1 -76 30 -29 31 -41 4 -65
-36 -32 -105 -127 -123 -169 -10 -22 -22 -48 -27 -57 -12 -24 -12 -188 1 -188
6 0 10 -13 10 -30 0 -16 4 -30 9 -30 5 0 11 -10 15 -23 5 -21 14 -35 56 -84 5
-7 10 -16 10 -20 0 -5 12 -17 26 -28 14 -10 35 -27 46 -37 11 -10 36 -23 54
-30 19 -7 34 -16 34 -20 0 -4 14 -8 30 -8 17 0 30 -4 30 -10 0 -6 31 -10 74
-10 41 0 78 5 81 10 3 6 19 10 36 10 16 0 29 3 29 8 0 4 20 15 44 25 23 10 52
25 63 35 25 22 60 42 74 42 6 0 27 -19 48 -42 l38 -41 45 44 c25 24 57 53 72
63 34 24 33 34 -9 78 -19 20 -35 39 -35 42 0 3 18 25 40 48 23 22 48 54 58 70
9 15 20 28 24 28 4 0 8 7 8 15 0 8 5 15 10 15 6 0 10 9 10 19 0 11 6 21 13 24
19 6 17 232 -3 275 -8 17 -18 32 -22 32 -5 0 -8 7 -8 16 0 8 -6 21 -12 29 -7
7 -29 33 -48 58 -19 25 -50 53 -67 63 -18 9 -33 21 -33 26 0 4 -9 8 -20 8 -11
0 -20 5 -20 10 0 6 -8 10 -18 10 -10 0 -22 4 -28 10 -11 11 -135 20 -179 13z
m129 -205 c46 -26 96 -71 96 -87 0 -6 5 -11 10 -11 6 0 10 -7 10 -15 0 -8 4
-15 9 -15 18 0 44 -88 37 -125 -11 -59 -82 -165 -110 -165 -12 0 -91 81 -132
136 -16 21 -40 50 -54 64 -14 14 -39 43 -55 64 -17 22 -41 51 -54 64 l-25 25
25 19 c13 10 32 26 42 34 9 7 24 14 32 14 7 0 17 5 20 10 12 19 105 11 149
-12z m-401 -221 c12 -12 35 -40 52 -62 16 -22 43 -54 60 -71 16 -16 39 -43 50
-58 11 -15 43 -51 72 -81 59 -62 60 -83 7 -111 -19 -10 -34 -22 -34 -25 0 -6
-64 -19 -100 -19 -29 -1 -80 12 -80 20 0 5 -8 11 -19 15 -32 10 -111 98 -111
124 0 6 -4 11 -10 11 -5 0 -10 9 -10 20 0 11 -5 29 -12 39 -8 14 -8 29 3 65 7
25 17 46 21 46 4 0 8 6 8 13 0 10 69 96 78 97 2 0 13 -10 25 -23z"/>
<path d="M11063 11408 c-43 -22 -82 -44 -87 -49 -6 -5 -18 -9 -27 -9 -10 0
-19 -3 -21 -7 -3 -8 -46 -33 -138 -79 -30 -16 -56 -32 -58 -36 -2 -4 -11 -8
-21 -8 -9 0 -21 -4 -27 -9 -8 -8 -157 -88 -279 -150 -27 -14 -51 -29 -53 -33
-2 -5 -12 -8 -23 -8 -10 0 -19 -3 -19 -7 0 -5 -29 -21 -65 -38 -36 -16 -65
-33 -65 -37 0 -5 -7 -8 -15 -8 -8 0 -15 -3 -15 -7 0 -10 99 -103 109 -103 5 0
14 -7 21 -15 7 -8 21 -15 32 -15 21 0 81 29 86 43 2 4 12 7 23 7 10 0 19 4 19
8 0 6 84 47 96 47 6 0 87 -66 141 -116 18 -16 35 -29 38 -29 3 0 38 -32 77
-70 65 -63 71 -73 60 -90 -6 -11 -12 -29 -12 -40 0 -11 -4 -20 -10 -20 -5 0
-10 -9 -10 -20 0 -12 -6 -33 -14 -48 -27 -54 -29 -89 -6 -109 12 -10 45 -39
74 -65 28 -26 56 -48 62 -48 6 0 15 10 21 23 16 33 54 148 60 180 3 15 9 27
14 27 5 0 9 14 9 30 0 17 5 30 10 30 6 0 10 8 10 18 1 20 34 119 44 129 3 3 6
17 6 30 0 13 5 23 10 23 6 0 10 14 10 30 0 17 5 30 10 30 6 0 10 7 10 16 0 9
12 50 26 92 26 77 32 92 53 145 6 15 11 37 11 47 0 11 4 20 9 20 5 0 12 16 15
35 4 20 16 56 27 81 21 49 25 104 9 104 -6 0 -21 10 -34 23 -52 49 -94 84
-109 90 -8 3 -50 -12 -94 -35z m-1 -249 c-2 -13 -8 -25 -13 -27 -5 -2 -9 -12
-9 -23 0 -11 -4 -27 -9 -37 -5 -9 -21 -51 -36 -92 -15 -41 -30 -84 -35 -95 -5
-11 -14 -35 -22 -52 -12 -32 -28 -44 -28 -23 0 6 -5 10 -10 10 -6 0 -26 15
-45 33 -63 59 -84 77 -90 77 -15 0 -56 53 -51 65 3 8 23 23 46 32 22 10 40 21
40 25 0 5 9 8 20 8 11 0 20 3 20 8 0 4 35 25 78 47 42 22 79 42 82 46 10 12
45 28 55 25 6 -1 8 -14 7 -27z"/>
<path d="M7252 11181 c-22 -18 -22 -22 -22 -398 0 -265 3 -382 11 -390 18 -18
3 -30 -56 -48 -30 -10 -55 -22 -55 -26 0 -5 -6 -9 -12 -9 -12 0 -35 -17 -93
-69 -31 -27 -65 -70 -65 -81 0 -6 -3 -10 -8 -10 -9 0 -42 -74 -42 -94 0 -7 -8
-23 -19 -34 l-18 -22 -1327 0 -1327 0 -33 -25 c-18 -14 -45 -25 -59 -25 -14 0
-29 -4 -32 -10 -16 -26 -126 4 -180 48 -28 23 -30 24 -34 6 -2 -10 2 -20 8
-22 6 -2 11 -10 11 -18 0 -17 84 -104 101 -104 7 0 2 -8 -9 -19 -12 -10 -22
-22 -22 -27 0 -13 -51 -177 -61 -196 -5 -10 -9 -29 -9 -43 0 -14 -4 -25 -10
-25 -5 0 -10 -11 -10 -25 0 -14 -4 -33 -9 -43 -5 -9 -17 -44 -25 -77 -9 -33
-21 -74 -26 -91 -6 -17 -10 -38 -10 -47 0 -9 -4 -17 -10 -17 -5 0 -10 -13 -10
-30 0 -16 -4 -30 -10 -30 -5 0 -10 -13 -10 -29 0 -17 -4 -33 -10 -36 -5 -3
-10 -15 -10 -25 0 -20 -46 -174 -61 -202 -5 -10 -9 -27 -9 -38 0 -11 -4 -28
-9 -38 -13 -24 -53 -160 -58 -199 -3 -18 -9 -33 -14 -33 -5 0 -9 -13 -9 -29 0
-17 -4 -33 -10 -36 -5 -3 -10 -15 -10 -26 0 -10 -4 -27 -9 -37 -13 -25 -41
-121 -41 -143 0 -10 -4 -21 -10 -24 -5 -3 -10 -17 -10 -30 0 -13 -4 -27 -10
-30 -5 -3 -10 -19 -10 -36 0 -16 -4 -29 -9 -29 -4 0 -11 -16 -14 -35 -7 -44
-45 -173 -58 -197 -5 -10 -9 -27 -9 -38 0 -11 -4 -28 -9 -38 -13 -25 -61 -185
-61 -205 0 -8 -4 -19 -10 -22 -5 -3 -10 -19 -10 -36 0 -16 -4 -29 -10 -29 -5
0 -10 -8 -10 -17 0 -19 -18 -79 -31 -105 -5 -10 -9 -24 -9 -32 0 -17 -29 -115
-41 -138 -5 -10 -9 -27 -9 -37 0 -11 -4 -23 -10 -26 -6 -3 -10 -19 -10 -36 0
-16 -4 -29 -10 -29 -5 0 -10 -11 -10 -24 0 -34 -19 -84 -36 -90 -16 -6 -20
-46 -4 -46 6 0 10 -8 10 -17 1 -10 14 -40 31 -68 16 -27 32 -58 36 -67 3 -10
9 -18 14 -18 5 0 9 -5 9 -11 0 -6 6 -16 13 -24 6 -7 21 -25 32 -40 26 -36 71
-85 79 -85 5 0 55 -43 102 -87 13 -13 26 -23 29 -23 3 0 17 -11 31 -25 14 -14
31 -25 39 -25 8 0 15 -4 15 -10 0 -5 9 -10 20 -10 11 0 20 -4 20 -10 0 -5 11
-10 25 -10 14 0 25 -4 25 -9 0 -5 10 -11 23 -14 12 -3 49 -13 82 -22 184 -51
364 -56 525 -15 104 27 160 45 160 52 0 4 11 8 25 8 14 0 25 4 25 9 0 5 8 11
18 14 23 8 121 65 136 80 7 6 25 21 41 32 43 31 118 110 160 169 11 16 26 34
33 41 6 8 12 18 12 23 0 6 4 12 9 14 11 4 81 153 81 172 0 8 -6 19 -14 23 -13
8 -22 36 -33 101 -3 17 -9 32 -14 32 -5 0 -9 16 -9 35 0 19 -4 35 -10 35 -5 0
-10 13 -10 29 0 17 -4 33 -10 36 -5 3 -10 16 -10 28 0 12 -12 54 -25 92 -14
39 -25 80 -25 93 0 12 -4 22 -10 22 -5 0 -10 11 -10 24 0 14 -4 28 -10 31 -5
3 -10 16 -10 28 0 12 -12 54 -25 92 -14 39 -25 80 -25 93 0 12 -4 22 -10 22
-5 0 -10 16 -10 35 0 19 -4 35 -10 35 -5 0 -10 8 -10 18 0 9 -9 41 -19 70 -11
28 -22 70 -26 92 -4 22 -11 42 -16 46 -5 3 -9 18 -9 35 0 16 -4 29 -10 29 -5
0 -10 13 -10 29 0 17 -4 33 -10 36 -5 3 -10 17 -10 31 0 13 -4 32 -9 42 -6 9
-17 44 -26 77 -9 33 -21 70 -26 83 -5 13 -9 32 -9 42 0 11 -4 20 -9 20 -5 0
-11 15 -14 33 -5 39 -45 175 -58 199 -5 10 -9 29 -9 43 0 14 -4 25 -10 25 -5
0 -10 11 -10 25 0 14 -4 33 -9 43 -11 20 -48 144 -57 190 -4 18 -11 35 -15 38
-5 3 -9 18 -9 35 0 16 -4 29 -10 29 -5 0 -10 13 -10 29 0 17 -4 33 -10 36 -5
3 -10 17 -10 31 0 13 -4 32 -9 42 -9 16 -23 61 -51 162 -6 25 -16 53 -21 62
-5 10 -9 27 -9 37 0 11 -4 23 -10 26 -6 3 -10 17 -10 30 0 13 -4 26 -9 29 -5
4 -12 30 -16 58 -5 32 -15 59 -26 69 -24 21 -24 29 1 29 11 0 20 5 20 10 0 6
6 10 14 10 7 0 19 7 26 15 7 8 19 15 27 15 8 0 21 -7 29 -15 14 -13 176 -15
1345 -15 l1329 0 0 -34 c0 -37 40 -140 73 -191 27 -41 116 -125 132 -125 10 0
25 -20 25 -34 0 -2 -30 -16 -67 -31 -38 -16 -70 -32 -73 -35 -3 -4 -16 -13
-29 -20 -39 -20 -171 -140 -171 -156 0 -3 -8 -14 -17 -23 -22 -19 -46 -60 -74
-121 -11 -25 -25 -53 -30 -62 -5 -10 -9 -29 -9 -43 0 -14 -4 -25 -9 -25 -32 0
-32 -366 0 -386 5 -3 9 -18 9 -35 0 -16 5 -29 10 -29 6 0 10 -9 10 -19 0 -11
5 -23 10 -26 6 -3 10 -24 10 -46 0 -21 -4 -39 -10 -39 -5 0 -10 -11 -10 -25 0
-14 -4 -25 -10 -25 -5 0 -10 -9 -10 -20 0 -19 -3 -28 -27 -75 -6 -12 -14 -35
-17 -53 -4 -17 -12 -34 -17 -37 -5 -4 -9 -17 -9 -31 0 -13 -4 -24 -10 -24 -5
0 -10 -11 -10 -25 0 -14 -4 -25 -10 -25 -5 0 -10 -10 -10 -23 0 -13 -3 -27 -7
-31 -11 -11 -31 -75 -25 -81 3 -3 106 -5 228 -5 246 0 241 -1 265 65 7 19 17
35 21 35 4 0 8 9 8 20 0 11 5 20 10 20 6 0 10 7 10 15 0 11 11 15 43 15 24 0
47 -4 52 -9 16 -14 135 -31 216 -31 41 1 106 8 144 16 39 9 90 18 115 21 45 5
46 4 60 -31 7 -20 17 -36 22 -36 4 0 8 -6 8 -13 0 -8 31 -76 70 -153 38 -76
70 -145 70 -151 0 -7 5 -13 10 -13 6 0 10 -9 10 -20 0 -11 3 -20 8 -20 4 0 21
-32 37 -70 17 -38 33 -70 38 -70 4 0 7 -9 7 -20 0 -11 5 -20 10 -20 6 0 10 -5
10 -11 0 -6 45 -102 100 -214 55 -111 100 -208 100 -214 0 -6 5 -11 10 -11 6
0 10 -9 10 -19 0 -11 4 -21 8 -23 9 -3 62 -113 62 -128 0 -6 5 -10 10 -10 6 0
10 -9 10 -20 0 -11 5 -20 10 -20 6 0 10 -9 10 -20 0 -11 3 -20 8 -20 4 0 21
-32 37 -70 17 -38 33 -70 38 -70 4 0 7 -9 7 -20 0 -11 5 -20 10 -20 6 0 10 -6
10 -14 0 -7 11 -34 25 -60 14 -26 25 -53 25 -61 0 -7 3 -15 8 -17 9 -3 82
-154 82 -169 0 -5 5 -9 10 -9 6 0 10 -6 10 -12 0 -7 25 -62 55 -123 30 -60 55
-116 55 -122 0 -7 5 -13 10 -13 6 0 10 -9 10 -19 0 -11 3 -21 8 -23 9 -4 82
-151 82 -166 0 -5 3 -12 8 -14 9 -4 82 -151 82 -166 0 -7 5 -12 10 -12 6 0 10
-9 10 -20 0 -11 3 -20 8 -20 4 0 13 -15 21 -32 37 -85 66 -143 73 -146 4 -2 8
-12 8 -23 0 -10 5 -19 10 -19 6 0 10 -6 10 -12 0 -7 32 -76 70 -153 39 -76 70
-145 70 -152 0 -7 5 -13 10 -13 6 0 10 -9 10 -19 0 -11 3 -21 8 -23 8 -4 48
-83 57 -115 4 -13 11 -23 16 -23 5 0 9 -9 9 -19 0 -11 5 -23 10 -26 6 -3 10
-15 10 -25 0 -10 3 -20 8 -22 9 -4 82 -151 82 -166 0 -7 5 -12 10 -12 6 0 10
-9 10 -19 0 -11 3 -21 8 -23 9 -4 62 -110 62 -126 0 -6 5 -12 10 -12 6 0 10
-9 10 -20 0 -11 5 -20 10 -20 6 0 10 -9 10 -19 0 -11 3 -21 8 -23 9 -4 62
-110 62 -126 0 -6 5 -12 10 -12 6 0 10 -9 10 -20 0 -11 5 -20 10 -20 6 0 10
-6 10 -14 0 -8 11 -34 25 -57 18 -31 25 -38 25 -23 0 11 -4 24 -8 30 -5 5 -17
36 -27 69 -11 33 -23 64 -27 69 -4 6 -8 20 -8 33 0 13 -4 23 -10 23 -5 0 -10
11 -10 24 0 13 -3 26 -8 28 -4 2 -20 41 -36 88 -16 47 -33 89 -37 94 -5 6 -9
20 -9 33 0 13 -4 23 -10 23 -5 0 -10 8 -10 18 0 10 -8 36 -19 58 -10 21 -27
66 -37 99 -10 33 -22 62 -26 63 -5 2 -8 15 -8 28 0 13 -4 24 -10 24 -5 0 -10
10 -10 23 0 13 -4 27 -9 32 -5 6 -16 35 -26 65 -10 30 -21 59 -26 65 -5 5 -9
19 -9 32 0 13 -4 23 -10 23 -5 0 -10 11 -10 25 0 14 -4 25 -10 25 -5 0 -10 6
-10 12 0 14 -46 144 -61 170 -5 10 -9 27 -9 38 0 11 -4 20 -10 20 -5 0 -10 8
-10 18 0 10 -8 36 -19 58 -10 21 -27 67 -37 102 -10 34 -22 62 -26 62 -4 0 -8
11 -8 25 0 14 -4 25 -10 25 -5 0 -10 10 -10 23 0 13 -4 27 -9 32 -5 6 -21 48
-37 95 -16 47 -32 87 -36 88 -5 2 -8 11 -8 21 0 9 -8 35 -19 57 -10 21 -27 67
-37 102 -10 34 -22 62 -26 62 -4 0 -8 11 -8 25 0 14 -4 25 -10 25 -5 0 -10 9
-10 20 0 11 -4 28 -10 38 -11 20 -50 127 -57 160 -3 12 -9 22 -14 22 -5 0 -9
11 -9 25 0 14 -4 25 -10 25 -5 0 -10 8 -10 18 0 14 -50 156 -80 227 -5 11 -25
65 -45 120 -20 55 -41 108 -46 117 -5 10 -9 25 -9 33 0 8 -4 15 -10 15 -5 0
-10 8 -10 18 0 10 -16 59 -35 108 -19 49 -35 97 -35 106 0 10 -4 18 -10 18 -5
0 -10 7 -10 15 0 8 -4 23 -9 33 -6 9 -22 51 -36 92 -27 77 -34 96 -53 140 -23
56 -52 137 -58 163 -3 15 -10 30 -15 33 -5 3 -9 16 -9 30 0 13 -4 24 -10 24
-5 0 -10 6 -10 14 0 7 -9 38 -21 67 -12 30 -28 72 -36 94 -8 22 -19 48 -24 57
-5 10 -9 27 -9 38 0 11 -4 20 -9 20 -5 0 -11 10 -14 23 -7 32 -46 139 -57 159
-6 10 -10 27 -10 38 0 11 -4 20 -10 20 -5 0 -10 11 -10 25 0 14 -4 25 -8 25
-4 0 -15 26 -24 58 -16 55 -15 112 3 112 5 0 9 11 9 25 0 14 4 25 9 25 15 0
23 67 28 219 3 93 0 148 -6 154 -6 6 -11 28 -11 49 0 21 -4 38 -10 38 -5 0
-10 7 -10 15 0 8 -4 23 -9 33 -5 9 -17 35 -27 56 -30 63 -38 76 -46 76 -5 0
-8 6 -8 13 0 17 -129 150 -169 173 -17 10 -31 22 -31 26 0 4 -9 8 -20 8 -11 0
-20 3 -20 8 0 4 -29 20 -65 36 -36 16 -65 32 -65 35 0 9 69 71 79 71 4 0 17
12 27 26 10 15 28 36 39 48 29 30 64 108 75 168 6 27 12 54 15 59 4 5 529 9
1321 9 1314 0 1344 1 1365 32 3 5 26 -4 51 -21 25 -17 53 -31 62 -31 18 0 22
-16 6 -22 -10 -3 -43 -92 -70 -188 -7 -25 -16 -54 -20 -65 -4 -11 -13 -38 -19
-60 -27 -101 -64 -222 -72 -237 -5 -10 -9 -29 -9 -43 0 -14 -4 -25 -10 -25 -5
0 -10 -11 -10 -25 0 -14 -4 -33 -10 -43 -10 -18 -49 -150 -57 -194 -3 -16 -9
-28 -14 -28 -5 0 -9 -16 -9 -35 0 -19 -4 -35 -10 -35 -5 0 -10 -11 -10 -25 0
-14 -4 -33 -9 -43 -5 -9 -16 -44 -26 -77 -9 -33 -21 -70 -26 -83 -5 -13 -9
-34 -9 -47 0 -14 -4 -25 -10 -25 -5 0 -10 -9 -10 -20 0 -10 -4 -29 -9 -42 -5
-13 -17 -50 -26 -83 -9 -33 -20 -68 -26 -77 -5 -10 -9 -29 -9 -42 0 -14 -4
-28 -10 -31 -5 -3 -10 -19 -10 -36 0 -16 -4 -29 -10 -29 -5 0 -10 -7 -10 -16
0 -8 -7 -39 -16 -67 -8 -29 -20 -70 -26 -92 -6 -22 -14 -49 -18 -60 -4 -11
-13 -40 -20 -65 -7 -25 -16 -54 -20 -65 -23 -61 -60 -187 -60 -204 0 -11 -4
-23 -10 -26 -5 -3 -10 -15 -10 -26 0 -10 -4 -27 -9 -37 -5 -9 -14 -35 -20 -57
-26 -95 -43 -151 -52 -167 -5 -10 -9 -29 -9 -43 0 -14 -4 -25 -10 -25 -5 0
-10 -16 -10 -35 0 -19 -4 -35 -10 -35 -5 0 -10 -7 -10 -16 0 -24 -31 -114 -40
-114 -22 0 -15 -36 22 -111 23 -46 45 -85 50 -87 4 -2 8 -10 8 -18 0 -8 4 -14
9 -14 5 0 14 -13 20 -28 14 -33 38 -60 117 -127 32 -27 73 -63 91 -80 18 -16
40 -36 47 -42 25 -21 86 -53 101 -53 8 0 15 -4 15 -10 0 -5 9 -10 19 -10 11 0
23 -4 26 -10 3 -5 15 -10 26 -10 10 0 19 -4 19 -8 0 -8 45 -19 175 -43 91 -18
245 -22 304 -9 165 35 197 43 206 51 5 5 19 9 31 9 13 0 26 5 29 10 3 6 13 10
20 10 14 0 165 86 175 99 3 4 20 18 39 30 38 27 131 117 131 127 0 4 8 14 18
23 10 9 27 31 37 49 11 17 23 32 27 32 4 0 8 9 8 20 0 11 4 20 9 20 5 0 17 17
26 38 10 20 26 55 37 77 16 35 17 41 4 51 -20 14 -36 57 -36 95 0 16 -4 29
-10 29 -5 0 -10 16 -10 35 0 19 -4 35 -10 35 -5 0 -10 14 -10 30 0 17 -4 30
-10 30 -5 0 -10 13 -10 29 0 17 -4 32 -9 35 -5 3 -12 23 -15 43 -7 36 -20 85
-36 128 -18 51 -30 93 -30 108 0 9 -4 17 -10 17 -5 0 -10 9 -10 20 0 11 -11
53 -25 94 -14 41 -25 86 -25 100 0 14 -4 26 -10 26 -5 0 -10 9 -10 20 0 11 -4
28 -9 38 -15 28 -61 187 -61 210 0 12 -4 22 -10 22 -5 0 -10 13 -10 29 0 17
-4 33 -10 36 -5 3 -10 17 -10 30 0 13 -4 27 -10 30 -5 3 -10 14 -10 24 0 22
-28 118 -41 143 -5 10 -9 27 -9 37 0 11 -4 23 -10 26 -5 3 -10 19 -10 36 0 16
-4 29 -9 29 -5 0 -11 15 -14 33 -5 39 -45 175 -58 199 -5 10 -9 29 -9 42 0 14
-4 28 -10 31 -5 3 -10 15 -10 26 0 10 -4 27 -9 37 -13 25 -41 121 -41 143 0
10 -4 21 -10 24 -5 3 -10 19 -10 36 0 16 -4 29 -10 29 -5 0 -10 14 -10 30 0
17 -4 30 -10 30 -5 0 -10 11 -10 25 0 14 -4 33 -9 43 -5 9 -17 46 -26 82 -9
36 -21 73 -26 82 -5 10 -9 29 -9 43 0 14 -4 25 -10 25 -5 0 -10 13 -10 28 0
15 -4 32 -8 38 -9 9 -33 87 -53 166 -7 31 -17 48 -30 51 -24 6 -25 34 -1 41
28 9 68 49 83 84 7 17 17 32 21 32 5 0 8 9 8 20 0 26 -5 25 -41 -9 -34 -33
-127 -66 -161 -58 -82 20 -101 27 -117 46 l-18 21 -1332 0 c-1461 0 -1355 -5
-1367 59 -4 17 -10 31 -15 31 -5 0 -9 9 -9 20 0 11 -3 20 -8 20 -4 0 -13 14
-20 30 -17 38 -104 125 -142 142 -17 7 -30 16 -30 20 0 5 -9 8 -20 8 -11 0
-20 5 -20 10 0 6 -9 10 -21 10 -11 0 -28 4 -38 10 -16 8 -17 16 -10 57 5 26 9
66 9 88 -1 22 -1 139 -1 260 0 336 -3 401 -18 419 -21 25 -180 23 -209 -3z
m203 -1063 c5 -5 24 -18 42 -28 18 -11 40 -34 49 -52 9 -18 20 -35 24 -38 7
-4 20 -70 20 -95 -1 -38 -15 -100 -25 -114 -56 -68 -68 -81 -81 -81 -8 0 -14
-3 -14 -7 0 -17 -57 -33 -112 -33 -58 0 -148 31 -148 51 0 5 -7 9 -15 9 -8 0
-15 4 -15 8 0 5 -8 17 -17 28 -55 60 -56 201 -3 268 24 31 59 62 90 81 37 23
180 24 205 3z m-3435 -350 c0 -7 1 -624 3 -1371 2 -1032 -1 -1361 -10 -1368
-7 -6 -175 -11 -428 -12 l-417 -2 5 30 c2 17 16 73 31 125 15 52 30 107 33
123 3 15 9 27 14 27 5 0 9 14 9 30 0 17 5 30 10 30 6 0 10 11 10 25 0 14 4 33
9 43 5 9 17 46 26 82 9 36 21 73 26 82 5 10 9 27 9 37 0 11 5 23 10 26 6 3 10
19 10 34 0 15 4 31 8 37 5 5 17 43 27 84 10 41 22 79 26 84 5 6 9 23 9 38 0
15 5 28 10 28 6 0 10 14 10 30 0 17 5 30 10 30 6 0 10 10 10 23 0 12 12 56 25
97 14 41 25 82 25 92 0 10 5 18 10 18 6 0 10 13 10 29 0 17 5 33 10 36 6 3 10
19 10 36 0 16 5 29 10 29 6 0 10 13 10 29 0 17 5 33 10 36 6 3 10 14 10 24 0
22 28 118 41 143 5 10 9 27 9 37 0 11 5 23 10 26 6 3 10 19 10 34 0 15 4 31 8
36 5 6 17 44 27 85 10 41 22 79 26 85 5 5 9 22 9 37 0 15 5 28 10 28 6 0 10
13 10 29 0 17 5 33 10 36 6 3 10 17 10 31 0 13 4 32 9 42 6 9 17 44 26 77 9
33 21 70 26 83 5 13 9 32 9 42 0 11 5 20 10 20 6 0 10 14 10 30 0 17 5 30 10
30 6 0 10 10 10 22 0 23 46 182 61 210 5 10 9 31 9 48 0 16 5 30 10 30 6 0 10
11 10 25 0 16 6 25 15 25 8 0 15 -6 15 -12z m6640 -1368 l0 -1379 -397 -3
c-219 -2 -408 -1 -420 1 -18 3 -23 10 -23 34 0 17 4 44 10 61 38 122 60 197
60 211 0 8 5 15 10 15 6 0 10 16 10 35 0 19 5 35 10 35 6 0 10 11 10 25 0 14
4 33 9 43 15 31 41 119 41 140 0 12 5 24 10 27 6 3 10 19 10 36 0 16 5 29 10
29 6 0 10 11 10 25 0 14 4 33 9 43 5 9 17 46 27 82 9 36 21 69 26 74 4 6 8 23
8 38 0 15 5 28 10 28 6 0 10 16 10 35 0 19 4 35 9 35 5 0 11 12 14 28 3 15 13
52 22 82 28 93 36 124 42 153 3 15 9 27 14 27 5 0 9 13 9 29 0 17 5 33 10 36
6 3 10 16 10 28 0 12 12 54 25 92 14 39 25 80 25 92 0 12 5 25 10 28 6 3 10
15 10 26 0 10 4 27 9 37 13 24 51 154 58 197 3 19 10 38 14 41 5 3 9 16 9 29
0 13 5 27 10 30 6 3 10 19 10 36 0 16 5 29 10 29 6 0 10 13 10 29 0 17 5 33
10 36 6 3 10 15 10 25 0 17 40 153 60 205 4 11 13 40 20 65 7 25 24 77 37 116
12 39 23 80 23 92 0 11 5 24 10 27 6 3 10 19 10 36 0 16 5 29 10 29 6 0 10 7
10 15 0 8 5 15 10 15 7 0 10 -467 10 -1380z m-6574 1353 c7 -10 14 -28 14 -41
0 -12 4 -30 9 -40 5 -9 21 -57 36 -107 15 -49 31 -100 36 -113 5 -13 9 -34 9
-47 0 -14 5 -25 10 -25 6 0 10 -7 10 -16 0 -9 9 -44 20 -78 35 -112 50 -165
50 -180 0 -9 5 -16 10 -16 6 0 10 -16 10 -35 0 -19 5 -35 10 -35 6 0 10 -13
10 -29 0 -17 5 -33 10 -36 6 -3 10 -16 10 -28 0 -12 12 -53 25 -92 14 -38 25
-80 25 -92 0 -13 5 -23 10 -23 6 0 10 -8 10 -17 0 -17 3 -26 45 -155 14 -42
25 -85 25 -97 0 -11 5 -23 10 -26 6 -3 10 -19 10 -36 0 -16 5 -29 10 -29 6 0
10 -9 10 -20 0 -10 4 -29 9 -42 9 -25 20 -60 46 -153 9 -33 21 -68 26 -77 5
-10 9 -29 9 -43 0 -14 5 -25 10 -25 6 0 10 -11 10 -25 0 -14 4 -33 9 -43 9
-16 24 -65 52 -167 6 -22 15 -49 19 -60 4 -11 13 -38 19 -60 28 -102 43 -151
52 -167 5 -10 9 -29 9 -43 0 -14 5 -25 10 -25 6 0 10 -16 10 -35 0 -19 5 -35
10 -35 6 0 10 -13 10 -28 0 -15 4 -32 9 -38 4 -5 16 -40 26 -79 10 -38 22 -74
27 -79 4 -6 8 -31 8 -57 l0 -48 -62 4 c-35 2 -224 4 -420 4 l-358 1 0 1375 c0
756 3 1375 6 1375 4 0 13 -8 20 -17z m6644 -13 c0 -16 5 -30 10 -30 6 0 10 -9
10 -20 0 -11 4 -28 9 -38 15 -28 61 -187 61 -210 0 -12 5 -22 10 -22 6 0 10
-13 10 -30 0 -16 5 -30 10 -30 6 0 10 -11 10 -25 0 -14 4 -33 9 -43 5 -9 17
-46 26 -82 10 -36 21 -74 25 -85 17 -46 30 -92 30 -108 0 -9 4 -17 9 -17 5 0
11 -15 14 -32 2 -18 12 -58 22 -88 9 -30 19 -70 22 -87 3 -18 9 -33 14 -33 5
0 9 -16 9 -35 0 -19 5 -35 10 -35 6 0 10 -9 10 -20 0 -11 4 -28 9 -38 13 -25
41 -121 41 -143 0 -10 5 -21 10 -24 6 -3 10 -19 10 -36 0 -16 5 -29 10 -29 6
0 10 -13 10 -29 0 -17 5 -33 10 -36 6 -3 10 -17 10 -30 0 -13 5 -27 10 -30 6
-3 10 -14 10 -24 0 -22 28 -118 41 -143 5 -10 9 -29 9 -43 0 -14 5 -25 10 -25
6 0 10 -11 10 -25 0 -14 4 -33 9 -43 14 -25 61 -184 61 -204 0 -9 5 -20 10
-23 6 -3 10 -19 10 -35 0 -16 5 -32 10 -35 6 -3 10 -15 10 -26 0 -10 4 -27 9
-37 5 -9 17 -46 27 -82 9 -36 21 -69 26 -74 4 -6 8 -22 8 -37 0 -15 5 -31 10
-34 6 -3 10 -19 10 -35 0 -16 5 -32 10 -35 6 -3 10 -15 10 -26 0 -10 4 -27 9
-37 14 -26 53 -163 58 -202 l5 -35 -417 2 c-307 1 -420 5 -431 13 -12 11 -14
196 -14 1370 0 746 3 1360 7 1363 16 17 33 5 33 -23z m-3279 -581 c79 -25 141
-61 185 -109 59 -62 75 -89 99 -167 35 -110 29 -182 -25 -296 -27 -58 -112
-145 -166 -171 -21 -10 -47 -22 -56 -27 -10 -5 -30 -9 -45 -9 -14 0 -42 -5
-60 -12 -27 -10 -38 -10 -53 0 -11 7 -38 12 -60 12 -22 0 -40 5 -40 10 0 6
-11 10 -24 10 -49 0 -171 108 -203 180 -36 79 -43 109 -43 190 0 89 13 139 51
206 27 46 116 134 135 134 8 0 14 5 14 10 0 6 8 10 18 10 10 0 22 3 26 8 27
27 186 41 247 21z"/>
<path d="M1394 11035 c-16 -30 -32 -55 -36 -55 -5 0 -8 -7 -8 -15 0 -8 -4 -15
-10 -15 -5 0 -10 -9 -10 -20 0 -11 -3 -20 -7 -20 -5 0 -17 -20 -28 -45 -11
-25 -22 -45 -25 -45 -4 0 -12 -16 -20 -35 -8 -19 -17 -35 -22 -35 -4 0 -8 -5
-8 -10 0 -6 -11 -28 -25 -50 -14 -22 -25 -46 -25 -55 0 -8 -4 -15 -10 -15 -21
0 -9 -18 25 -36 19 -10 35 -22 35 -26 0 -5 9 -8 20 -8 11 0 20 -4 20 -10 0 -5
7 -10 15 -10 8 0 15 -4 15 -10 0 -5 9 -10 20 -10 11 0 20 -4 20 -8 0 -5 20
-17 45 -28 25 -10 45 -22 45 -26 0 -4 7 -8 15 -8 8 0 15 -3 15 -7 0 -5 10 -13
23 -19 68 -32 167 -89 167 -96 0 -4 9 -8 20 -8 11 0 20 -3 20 -7 0 -5 20 -17
45 -28 25 -11 45 -23 45 -27 0 -5 9 -8 21 -8 22 0 49 22 49 39 0 6 5 11 10 11
6 0 10 7 10 15 0 9 11 33 25 55 14 22 25 44 25 50 0 5 5 10 10 10 6 0 10 9 10
20 0 11 3 20 8 20 4 0 12 10 18 23 17 35 49 92 54 97 3 3 12 19 20 35 8 17 25
46 38 66 25 39 21 69 -9 69 -10 0 -19 4 -19 9 0 11 -38 21 -56 14 -8 -3 -14
-14 -14 -24 0 -10 -4 -19 -8 -19 -5 0 -26 -34 -48 -76 -21 -41 -47 -84 -56
-94 -10 -11 -18 -26 -18 -35 0 -8 -3 -15 -7 -15 -5 0 -16 -20 -26 -45 -13 -31
-25 -45 -38 -45 -10 0 -19 5 -19 10 0 6 -9 10 -19 10 -11 0 -21 3 -23 8 -1 4
-21 16 -43 27 -22 11 -48 27 -57 35 -16 14 -16 18 0 50 9 19 19 37 22 40 5 5
24 38 62 109 12 23 25 41 30 41 4 0 8 9 8 20 0 11 5 20 10 20 6 0 10 7 10 15
0 8 5 15 10 15 6 0 10 10 10 23 0 16 -12 28 -42 45 -50 26 -68 28 -68 7 0 -8
-4 -15 -10 -15 -5 0 -10 -9 -10 -20 0 -11 -4 -20 -10 -20 -5 0 -10 -4 -10 -9
0 -9 -69 -131 -80 -141 -3 -3 -16 -26 -29 -52 -13 -27 -28 -48 -33 -48 -11 0
-70 31 -78 41 -3 3 -20 12 -37 20 -18 8 -33 17 -33 21 0 4 14 31 31 60 16 29
33 61 36 71 3 9 9 17 14 17 5 0 9 9 9 20 0 11 3 20 8 20 4 0 12 10 18 23 17
35 49 92 54 97 10 10 31 52 28 55 -6 6 -97 55 -101 55 -3 0 -17 -25 -33 -55z"/>
<path d="M13390 10767 c-25 -12 -46 -25 -48 -29 -2 -5 -12 -8 -23 -8 -10 0
-19 -3 -19 -7 0 -5 -29 -21 -65 -38 -36 -16 -65 -33 -65 -36 0 -3 -16 -11 -35
-19 -19 -8 -35 -17 -35 -22 0 -4 -9 -8 -20 -8 -11 0 -20 -3 -20 -7 0 -5 -20
-16 -45 -26 -25 -11 -45 -23 -45 -28 0 -5 -5 -9 -11 -9 -6 0 -47 -17 -90 -37
-69 -34 -78 -41 -78 -65 -1 -16 2 -28 7 -28 4 0 21 -32 37 -70 17 -38 33 -70
38 -70 4 0 7 -9 7 -20 0 -11 4 -20 9 -20 5 0 30 -44 57 -97 27 -54 51 -100 55
-103 3 -3 14 -24 25 -47 18 -40 34 -55 34 -33 0 6 7 10 15 10 13 0 44 16 74
37 5 3 -52 117 -61 121 -5 2 -8 12 -8 23 0 10 -4 19 -8 19 -4 0 -16 20 -26 45
-11 25 -22 45 -26 45 -3 0 -12 16 -20 35 -8 19 -17 35 -22 35 -4 0 -8 9 -8 19
0 11 -6 21 -12 24 -8 2 2 13 22 25 19 11 40 26 47 31 7 6 18 11 26 11 7 0 23
9 35 21 33 30 63 21 87 -26 11 -22 23 -41 28 -43 4 -2 7 -12 7 -23 0 -10 3
-19 8 -19 4 0 16 -20 27 -45 11 -25 23 -45 27 -45 5 0 8 -9 8 -20 0 -11 5 -20
10 -20 6 0 10 -9 10 -20 0 -11 5 -20 10 -20 6 0 10 -7 10 -15 0 -8 7 -15 15
-15 8 0 15 5 15 10 0 6 7 10 15 10 8 0 26 9 39 21 21 18 22 24 13 50 -6 16
-15 29 -19 29 -4 0 -8 9 -8 20 0 11 -4 20 -10 20 -5 0 -10 9 -10 20 0 11 -3
20 -8 20 -4 0 -16 20 -27 45 -11 25 -23 45 -27 45 -5 0 -8 9 -8 20 0 11 -3 20
-8 20 -4 0 -13 13 -20 30 -11 25 -11 32 0 43 19 18 119 67 137 67 10 -1 28
-27 46 -65 17 -36 33 -65 38 -65 4 0 7 -7 7 -16 0 -9 8 -28 18 -42 10 -15 31
-55 47 -89 17 -34 35 -64 41 -67 5 -2 34 8 64 22 30 14 49 27 42 30 -7 2 -12
12 -12 23 0 10 -4 19 -8 19 -5 0 -14 16 -22 35 -8 19 -17 35 -22 35 -4 0 -8 7
-8 15 0 9 -10 32 -23 53 -12 20 -40 73 -62 117 -22 44 -43 82 -47 83 -5 2 -8
12 -8 23 0 10 -4 19 -10 19 -5 0 -10 7 -10 15 0 8 -4 15 -10 15 -5 0 -10 7
-10 15 0 20 -16 18 -70 -8z"/>
<path d="M870 10040 c-8 -28 -18 -53 -22 -56 -18 -11 -7 -34 16 -34 14 0 28
-4 31 -10 3 -5 17 -10 31 -10 13 0 24 -4 24 -10 0 -5 8 -10 17 -10 19 0 159
-46 185 -60 10 -6 29 -10 43 -10 14 0 25 -4 25 -10 0 -5 11 -10 25 -10 14 0
25 -4 25 -10 0 -5 14 -10 30 -10 17 0 30 -4 30 -9 0 -5 16 -12 36 -16 20 -3
45 -12 55 -18 20 -13 26 -52 9 -62 -5 -3 -10 -17 -10 -31 0 -13 -4 -24 -9 -24
-5 0 -12 -18 -16 -39 -3 -22 -12 -47 -20 -57 -13 -18 -15 -18 -72 0 -32 10
-66 22 -75 27 -10 5 -27 9 -38 9 -11 0 -20 5 -20 10 0 6 -11 10 -24 10 -14 0
-28 5 -31 10 -3 6 -16 10 -29 10 -12 0 -26 3 -29 6 -10 10 -109 43 -129 44
-10 0 -18 5 -18 10 0 6 -11 10 -25 10 -14 0 -25 5 -25 10 0 6 -13 10 -30 10
-16 0 -30 5 -30 10 0 6 -9 10 -19 10 -20 0 -31 -18 -31 -51 0 -10 -4 -19 -10
-19 -5 0 -10 -13 -10 -29 0 -16 -5 -31 -12 -33 -6 -2 22 -14 63 -27 41 -12 82
-27 91 -32 10 -5 27 -9 38 -9 11 0 20 -4 20 -10 0 -5 11 -10 25 -10 14 0 25
-4 25 -10 0 -5 10 -10 23 -10 23 -1 123 -33 134 -44 3 -3 17 -6 29 -6 13 0 26
-4 29 -10 3 -5 15 -10 26 -10 10 0 19 -4 19 -9 0 -6 15 -11 32 -13 23 -2 34
-9 37 -22 4 -23 -48 -188 -63 -198 -12 -8 -70 2 -74 14 -2 4 -17 8 -33 8 -16
0 -29 4 -29 9 0 5 -12 11 -27 14 -30 5 -87 24 -115 38 -10 5 -27 9 -38 9 -11
0 -20 5 -20 10 0 6 -11 10 -24 10 -14 0 -28 5 -31 10 -3 6 -17 10 -30 10 -13
0 -26 4 -29 9 -3 5 -16 11 -28 14 -13 3 -46 12 -73 20 -58 16 -75 7 -75 -38 0
-14 -4 -25 -10 -25 -5 0 -10 -13 -10 -29 0 -22 6 -31 23 -36 12 -3 33 -11 47
-17 60 -26 224 -78 244 -78 9 0 16 -4 16 -10 0 -5 11 -10 25 -10 14 0 25 -4
25 -10 0 -5 14 -10 30 -10 17 0 30 -4 30 -10 0 -5 7 -10 16 -10 18 0 108 -28
136 -41 10 -5 25 -9 33 -9 8 0 15 -4 15 -9 0 -13 68 -19 80 -7 6 6 10 20 10
31 0 12 3 24 6 28 9 8 64 175 64 192 0 8 5 15 10 15 6 0 10 11 10 24 0 14 5
28 10 31 6 3 10 16 10 29 0 12 4 26 8 32 5 5 17 36 26 69 10 33 21 69 26 80 5
11 14 38 21 60 7 22 17 44 21 50 4 5 8 16 8 23 0 31 43 132 56 132 8 0 14 -4
14 -9 0 -5 18 -11 40 -15 23 -3 50 -12 60 -18 28 -18 48 6 52 62 3 40 1 45
-19 48 -13 2 -23 8 -23 13 0 5 -11 9 -24 9 -14 0 -28 5 -31 10 -3 6 -16 10
-29 10 -12 0 -26 3 -30 7 -7 7 -76 33 -89 33 -4 0 -12 -11 -17 -25 -11 -28
-42 -45 -48 -27 -2 7 -17 12 -33 12 -16 0 -29 5 -29 10 0 6 -9 10 -20 10 -11
0 -28 4 -38 9 -9 6 -44 18 -77 27 -33 9 -64 21 -70 26 -5 4 -21 8 -36 8 -15 0
-29 3 -31 8 -3 8 -179 72 -218 79 -24 4 -27 0 -40 -47z"/>
<path d="M13860 9790 c0 -5 -8 -10 -17 -10 -10 0 -49 -11 -88 -25 -38 -13 -80
-25 -92 -25 -12 0 -25 -4 -28 -10 -3 -5 -15 -10 -26 -10 -10 0 -27 -4 -37 -9
-9 -5 -37 -15 -62 -22 -25 -7 -50 -16 -55 -20 -6 -5 -30 -11 -53 -15 -23 -4
-45 -11 -48 -15 -3 -5 -16 -9 -29 -9 -13 0 -27 -4 -30 -10 -3 -5 -17 -10 -30
-10 -13 0 -27 -4 -30 -10 -3 -5 -15 -10 -26 -10 -20 0 -26 -15 -9 -25 6 -3 10
-19 10 -36 0 -16 5 -29 10 -29 6 0 10 -11 10 -25 0 -30 -3 -30 90 0 41 14 82
25 92 25 10 0 18 5 18 10 0 6 16 10 35 10 19 0 35 5 35 10 0 6 16 10 35 10 30
0 35 -3 35 -24 0 -14 5 -28 10 -31 6 -3 10 -19 10 -35 0 -16 5 -32 10 -35 6
-3 10 -17 10 -31 0 -13 4 -24 9 -24 9 0 20 -43 24 -90 2 -22 -4 -26 -40 -35
-23 -6 -45 -13 -49 -18 -4 -4 -18 -7 -31 -7 -12 0 -23 -4 -23 -10 0 -5 -13
-10 -28 -10 -15 0 -32 -4 -37 -8 -6 -5 -29 -15 -52 -22 -24 -7 -43 -18 -43
-24 0 -6 8 -37 17 -68 13 -42 23 -58 36 -58 9 0 17 5 17 10 0 6 13 10 28 10
15 0 32 4 37 8 6 5 42 17 80 27 39 10 74 22 80 26 5 5 22 9 37 9 15 0 28 5 28
10 0 6 9 10 20 10 11 0 28 4 38 9 30 15 181 61 201 61 11 0 23 5 26 10 3 6 17
10 31 10 13 0 24 5 24 10 0 6 14 10 30 10 25 0 30 4 30 25 0 14 -4 25 -10 25
-5 0 -10 14 -10 30 0 17 -4 30 -10 30 -5 0 -10 7 -10 15 0 8 -8 15 -19 15 -10
0 -35 -7 -54 -15 -20 -8 -48 -15 -62 -15 -14 0 -25 -4 -25 -10 0 -5 -13 -10
-30 -10 -16 0 -30 -4 -30 -10 0 -5 -11 -10 -25 -10 -14 0 -25 -5 -25 -12 0
-55 -72 126 -87 220 -3 17 -9 32 -14 32 -5 0 -9 10 -9 23 0 23 37 47 71 47 10
0 21 5 24 10 3 6 17 10 30 10 13 0 27 5 30 10 3 6 19 10 36 10 16 0 29 5 29
10 0 6 11 10 25 10 34 0 36 23 8 98 -13 36 -20 42 -44 42 -16 0 -29 -4 -29
-10z"/>
<path d="M14100 8681 c0 -4 -30 -11 -67 -15 -38 -4 -97 -11 -133 -15 -36 -5
-117 -15 -180 -21 -63 -7 -123 -16 -132 -21 -10 -5 -38 -9 -63 -9 l-45 0 0
-48 c0 -26 6 -60 13 -76 11 -25 15 -27 52 -21 22 3 70 9 108 11 37 3 67 10 67
15 0 5 24 9 54 9 l54 0 10 -62 c13 -75 25 -172 26 -213 1 -28 -1 -30 -41 -33
-24 -2 -43 -7 -43 -12 0 -4 -30 -11 -67 -14 -38 -3 -92 -8 -121 -12 l-54 -6 7
-62 c4 -33 9 -64 12 -68 6 -11 91 -10 127 1 17 6 78 15 136 22 58 6 137 16
175 20 39 5 99 12 135 15 36 3 69 10 75 15 5 5 30 9 56 9 l47 0 -5 68 c-3 37
-7 69 -10 71 -3 5 -180 -13 -264 -25 -41 -7 -37 -16 -58 141 -5 39 -13 91 -16
118 l-8 47 32 0 c17 0 31 4 31 8 0 4 52 13 115 19 64 6 118 12 120 15 2 2 -1
34 -7 71 l-11 67 -63 0 c-35 0 -64 -4 -64 -9z"/>
<path d="M466 8628 c-13 -74 -26 -174 -26 -208 0 -22 -4 -40 -9 -40 -5 0 -12
-33 -15 -72 -3 -40 -8 -106 -12 -145 -5 -67 -4 -73 13 -73 11 0 23 -4 28 -9 6
-5 39 -12 75 -14 36 -3 83 -8 105 -12 124 -18 192 -27 267 -36 125 -16 200
-27 228 -34 26 -6 26 -6 39 92 8 54 16 127 18 163 3 36 9 73 14 82 5 9 9 48 9
87 0 54 -5 80 -24 115 -40 75 -68 96 -154 113 l-77 16 -60 -28 c-33 -16 -65
-34 -71 -39 -25 -26 -58 -115 -62 -168 -3 -32 -8 -58 -13 -58 -5 0 -9 -29 -9
-65 0 -37 -4 -65 -10 -65 -5 0 -10 -7 -10 -15 0 -11 -12 -15 -47 -15 -47 0
-120 13 -130 23 -3 3 5 72 17 154 12 81 25 171 27 199 l5 51 -45 12 c-62 15
-66 14 -71 -11z m582 -175 c32 -35 34 -41 28 -88 -3 -27 -9 -77 -12 -110 -8
-82 -22 -118 -43 -109 -9 4 -43 9 -76 11 -80 5 -105 18 -105 56 0 44 30 200
41 212 5 5 9 15 9 23 0 24 33 41 79 42 39 0 49 -5 79 -37z"/>
<path d="M4825 7838 c20 -18 75 -69 120 -113 46 -44 98 -91 116 -105 18 -14
65 -56 104 -95 39 -38 89 -83 111 -100 21 -16 69 -59 105 -95 36 -36 92 -87
124 -115 32 -27 85 -76 117 -107 32 -32 60 -58 63 -58 5 0 100 -88 181 -167
18 -18 36 -33 39 -33 2 0 35 -30 73 -67 37 -38 85 -81 106 -98 22 -16 69 -59
105 -95 36 -36 93 -87 125 -115 33 -27 85 -75 116 -105 31 -30 89 -84 129
-120 41 -36 90 -81 111 -100 20 -19 61 -57 91 -84 72 -65 223 -202 270 -246
20 -19 70 -64 109 -100 40 -36 100 -91 134 -122 33 -32 68 -58 78 -58 9 0 40
24 70 53 29 29 73 69 98 89 25 20 77 67 117 105 40 37 105 97 144 133 40 36
87 80 105 98 18 17 36 32 39 32 2 0 36 30 74 68 38 37 86 81 106 97 20 17 69
62 109 100 39 39 89 84 110 100 21 17 47 37 57 46 20 18 25 54 9 64 -5 3 -10
15 -10 26 0 10 -4 19 -10 19 -5 0 -10 9 -10 20 0 11 -4 20 -10 20 -5 0 -10 9
-10 19 0 11 -3 21 -7 23 -5 2 -19 27 -32 56 -14 28 -30 52 -36 52 -7 0 -43
-30 -81 -66 -38 -36 -86 -80 -108 -97 -21 -18 -71 -63 -111 -102 -40 -38 -94
-88 -121 -110 -26 -22 -73 -65 -104 -95 -31 -30 -83 -77 -115 -105 -33 -27
-85 -75 -116 -105 -31 -30 -73 -68 -93 -85 -21 -16 -44 -36 -52 -43 -12 -11
-16 -11 -27 0 -7 7 -47 42 -87 78 -40 36 -105 95 -143 133 -37 37 -70 67 -72
67 -6 0 -69 57 -147 133 -38 37 -71 67 -73 67 -5 0 -61 50 -140 125 -35 33
-89 83 -120 110 -31 28 -81 73 -110 100 -146 136 -233 216 -265 241 -19 16
-62 56 -96 89 -33 33 -82 78 -109 100 -28 22 -79 69 -115 105 -36 36 -87 82
-112 104 -58 47 -178 163 -178 170 0 4 518 6 1151 6 633 0 1149 3 1147 8 -18
43 -75 148 -80 150 -5 2 -8 12 -8 23 0 10 -4 19 -10 19 -5 0 -10 9 -10 19 0
11 -4 23 -10 26 -5 3 -10 15 -10 26 0 19 -22 19 -1477 19 l-1476 0 38 -32z"/>
<path d="M8290 7845 c0 -14 4 -33 9 -43 5 -9 21 -57 36 -107 14 -49 28 -96 30
-102 3 -10 89 -13 384 -13 219 0 382 -4 385 -9 4 -5 -20 -31 -51 -58 -32 -26
-85 -75 -118 -108 -34 -33 -77 -72 -97 -87 -19 -15 -69 -61 -111 -102 -42 -42
-79 -76 -82 -76 -3 0 -21 -16 -41 -35 -19 -19 -39 -35 -44 -35 -6 0 -10 -16
-10 -35 0 -19 5 -35 10 -35 6 0 10 -9 10 -20 0 -11 4 -28 9 -38 5 -9 13 -28
18 -42 6 -14 18 -42 27 -63 9 -21 16 -47 16 -57 0 -43 28 -27 154 90 33 30 77
71 98 90 21 19 63 58 92 85 29 28 74 68 101 90 26 22 79 71 118 108 38 37 88
82 109 100 22 18 83 74 136 125 53 50 99 92 102 92 4 0 51 43 105 95 54 52
101 95 105 95 7 0 120 110 120 116 0 2 -364 4 -810 4 l-810 0 0 -25z"/>
<path d="M13895 7605 c-5 -1 -36 -8 -67 -15 -32 -7 -58 -17 -58 -22 0 -4 -8
-8 -19 -8 -25 0 -114 -86 -132 -127 -8 -18 -17 -33 -20 -33 -10 0 -20 -66 -26
-167 -3 -62 -1 -93 6 -93 6 0 11 -11 11 -25 0 -13 9 -41 21 -62 27 -49 112
-131 144 -139 14 -3 28 -10 31 -15 3 -5 18 -9 34 -9 16 0 32 -4 35 -10 4 -6
53 -10 115 -10 62 0 111 4 115 10 3 6 17 10 30 10 13 0 27 5 30 10 3 6 15 10
25 10 11 0 30 11 44 25 14 14 30 25 36 25 5 0 10 4 10 8 0 5 9 18 20 30 83 89
105 278 46 406 -28 61 -94 136 -120 136 -9 0 -16 5 -16 10 0 6 -7 10 -15 10
-8 0 -15 3 -15 8 0 18 -223 49 -265 37z m219 -179 c52 -28 96 -69 96 -90 0 -8
5 -16 11 -18 6 -2 11 -33 11 -78 0 -45 -5 -76 -11 -78 -6 -2 -11 -12 -11 -23
0 -10 -4 -19 -9 -19 -5 0 -11 -9 -14 -21 -3 -11 -15 -23 -26 -26 -12 -3 -21
-9 -21 -14 0 -5 -9 -9 -19 -9 -11 0 -21 -4 -23 -10 -1 -5 -22 -11 -45 -12 -24
-1 -43 -5 -43 -10 0 -10 -64 -11 -73 -1 -4 4 -26 8 -50 10 -23 3 -46 9 -51 14
-6 5 -16 9 -23 9 -20 0 -93 72 -93 92 0 10 -4 18 -10 18 -15 0 -12 146 3 172
23 41 57 73 100 94 35 18 61 22 149 23 95 1 112 -2 152 -23z"/>
<path d="M603 7587 c-29 -6 -53 -14 -53 -19 0 -4 -9 -8 -20 -8 -11 0 -20 -4
-20 -8 0 -4 -15 -16 -32 -27 -38 -21 -78 -64 -78 -82 0 -7 -4 -13 -9 -13 -4 0
-16 -25 -26 -55 -25 -81 -18 -253 13 -316 25 -50 83 -119 101 -119 6 0 11 -4
11 -8 0 -11 66 -42 90 -42 11 0 20 -4 20 -10 0 -6 51 -10 134 -10 79 0 137 4
141 10 3 6 17 10 31 10 13 0 24 4 24 9 0 5 11 12 25 15 38 10 135 111 135 141
0 8 5 15 10 15 6 0 10 13 10 29 0 17 5 33 10 36 13 8 13 205 0 205 -5 0 -10 9
-10 19 0 51 -90 167 -147 192 -18 8 -33 17 -33 20 0 21 -247 32 -327 16z m232
-147 c3 -5 16 -10 29 -10 31 0 84 -41 112 -87 35 -57 34 -165 -2 -219 -15 -21
-30 -41 -35 -42 -5 -2 -15 -9 -22 -15 -22 -21 -56 -37 -76 -37 -11 0 -23 -4
-26 -10 -3 -5 -36 -10 -72 -10 -172 0 -276 85 -275 224 0 102 69 196 144 196
16 0 28 5 28 10 0 6 38 10 94 10 53 0 98 -4 101 -10z"/>
<path d="M6360 7525 c0 -8 -4 -15 -10 -15 -5 0 -10 -10 -10 -23 0 -13 -4 -27
-8 -32 -4 -6 -16 -35 -26 -65 -11 -30 -23 -59 -27 -64 -5 -6 -9 -20 -9 -33 0
-13 -4 -23 -10 -23 -5 0 -10 -11 -10 -25 0 -14 -4 -25 -10 -25 -5 0 -10 -10
-10 -23 0 -13 -3 -27 -7 -30 -3 -4 -14 -30 -24 -58 -17 -47 -17 -79 1 -79 4 0
46 -37 92 -82 104 -101 125 -118 141 -118 12 1 107 185 107 208 0 7 3 12 8 12
4 0 21 32 37 70 17 38 33 70 38 70 4 0 7 9 7 20 0 11 5 20 10 20 6 0 10 9 10
20 0 11 5 20 10 20 6 0 10 8 10 18 0 9 7 26 15 36 8 11 15 28 15 38 0 10 4 18
8 18 5 0 14 16 22 35 8 19 17 35 22 35 4 0 8 9 8 19 0 11 4 22 9 25 5 3 11 15
14 26 5 20 1 20 -209 20 -184 0 -214 -2 -214 -15z"/>
<path d="M6030 6661 c0 -12 -4 -29 -9 -39 -20 -37 -61 -144 -61 -158 0 -8 -4
-14 -10 -14 -5 0 -10 -11 -10 -24 0 -14 -4 -28 -10 -31 -5 -3 -10 -17 -10 -31
0 -13 -3 -24 -7 -24 -5 0 -17 -28 -27 -63 -19 -60 -24 -74 -46 -117 -5 -11
-10 -29 -10 -40 0 -11 -4 -20 -10 -20 -5 0 -10 -9 -10 -20 0 -17 -18 -66 -41
-112 -5 -10 -9 -25 -9 -33 0 -8 -4 -15 -10 -15 -5 0 -10 -11 -10 -25 0 -14 -4
-25 -10 -25 -5 0 -10 -13 -10 -30 0 -16 -3 -30 -7 -30 -5 0 -17 -30 -28 -66
-11 -36 -23 -68 -27 -70 -5 -3 -8 -14 -8 -25 0 -10 -4 -19 -10 -19 -5 0 -10
-11 -10 -24 0 -14 -4 -28 -10 -31 -5 -3 -10 -17 -10 -31 0 -13 -3 -24 -7 -24
-5 0 -17 -28 -27 -63 -11 -34 -24 -71 -29 -82 -6 -11 -14 -28 -19 -37 -4 -10
-8 -27 -8 -38 0 -11 -4 -20 -10 -20 -5 0 -10 -8 -10 -17 0 -10 -12 -47 -26
-83 -15 -36 -31 -76 -36 -90 -6 -14 -14 -33 -19 -42 -5 -10 -9 -27 -9 -38 0
-11 -4 -20 -10 -20 -5 0 -10 -9 -10 -20 0 -10 -7 -36 -16 -57 -9 -21 -21 -49
-27 -63 -5 -14 -13 -33 -18 -42 -5 -10 -9 -27 -9 -38 0 -11 -4 -20 -10 -20 -5
0 -10 -9 -10 -19 0 -11 -12 -48 -26 -83 -14 -35 -31 -74 -36 -88 -6 -14 -14
-33 -19 -42 -5 -10 -9 -25 -9 -33 0 -8 -4 -23 -9 -33 -23 -46 -41 -95 -41
-112 0 -11 -4 -20 -10 -20 -5 0 -10 -9 -10 -19 0 -11 -4 -23 -10 -26 -5 -3
-10 -15 -10 -26 0 -10 -5 -29 -12 -42 -23 -45 -28 -57 -28 -68 0 -6 -7 -27
-16 -47 -9 -21 -20 -47 -25 -59 -5 -13 -14 -34 -20 -47 -6 -13 -9 -30 -6 -38
4 -12 67 110 67 132 0 5 5 10 10 10 6 0 10 9 10 20 0 11 5 20 10 20 6 0 10 6
10 13 0 15 92 201 102 205 5 2 8 11 8 20 0 10 11 37 25 61 14 23 25 49 25 56
0 7 3 15 8 17 10 4 82 150 82 166 0 6 5 12 10 12 6 0 10 9 10 19 0 11 3 21 8
23 9 3 82 154 82 169 0 5 5 9 10 9 6 0 10 9 10 20 0 11 5 20 10 20 6 0 10 9
10 20 0 11 5 20 10 20 6 0 10 4 10 10 0 15 53 125 62 128 4 2 8 9 8 15 0 7 25
62 55 122 30 61 55 116 55 123 0 6 5 12 10 12 6 0 10 5 10 12 0 15 73 162 83
166 4 2 7 12 7 23 0 10 5 19 10 19 6 0 10 6 10 12 0 16 53 122 63 126 4 2 7
12 7 23 0 10 5 19 10 19 6 0 10 9 10 20 0 11 5 20 10 20 6 0 10 7 10 15 0 17
51 118 63 123 4 2 7 12 7 23 0 10 5 19 10 19 6 0 10 8 10 18 0 9 11 37 25 61
14 23 25 49 25 56 0 7 3 15 8 17 9 3 82 154 82 169 0 5 5 9 10 9 6 0 10 9 10
19 0 11 4 21 8 23 4 2 17 23 29 47 l20 45 -47 45 c-65 64 -170 155 -181 159
-5 2 -9 -6 -9 -17z"/>
<path d="M13517 6454 c-3 -27 -8 -62 -12 -79 -6 -26 -2 -32 22 -47 15 -9 49
-36 74 -60 25 -23 64 -58 85 -75 42 -36 123 -109 206 -187 l52 -48 -64 7 c-35
4 -77 11 -94 16 -17 5 -48 9 -68 9 -20 0 -40 5 -43 10 -3 6 -28 10 -55 10 -27
0 -52 5 -55 10 -3 6 -30 10 -59 10 l-54 0 -11 -44 c-18 -72 -15 -86 17 -86 15
-1 54 -7 87 -15 33 -8 81 -15 108 -15 26 0 47 -4 47 -10 0 -5 25 -10 55 -10
30 0 55 -4 55 -10 0 -5 24 -10 54 -10 30 0 57 -4 60 -9 3 -4 34 -11 68 -14 35
-4 88 -11 118 -17 67 -12 80 0 80 72 0 26 5 48 10 48 6 0 -17 27 -51 60 -34
33 -64 60 -68 60 -3 0 -32 25 -64 55 -32 30 -60 55 -63 55 -3 0 -15 10 -28 23
-12 12 -45 40 -71 62 -66 54 -97 86 -91 92 6 7 206 -24 252 -38 17 -5 51 -9
77 -9 25 0 49 -4 52 -10 3 -5 30 -10 59 -10 l53 0 7 43 c15 87 19 81 -69 95
-44 7 -100 16 -125 18 -25 3 -54 9 -65 14 -11 5 -40 11 -65 14 -25 3 -70 10
-100 15 -30 6 -100 17 -155 25 -55 8 -114 17 -131 21 -32 7 -32 7 -37 -41z"/>
<path d="M14343 6178 c-13 -6 -23 -14 -23 -18 0 -3 -9 -16 -20 -28 -17 -18
-21 -36 -21 -92 0 -66 1 -71 34 -103 19 -19 44 -38 56 -42 18 -5 21 -2 21 24
0 19 -9 39 -25 55 -39 39 -32 103 16 149 10 9 25 17 34 17 8 0 15 4 15 9 0 5
3 16 6 25 5 13 -1 16 -32 15 -22 0 -49 -5 -61 -11z"/>
<path d="M7050 5680 c-84 -11 -104 -25 -118 -76 -7 -24 -12 -80 -12 -123 0
-90 -3 -93 -100 -126 -30 -11 -60 -23 -66 -27 -11 -8 -56 22 -94 63 -8 8 -39
32 -68 51 -52 35 -54 35 -85 20 -18 -9 -41 -24 -51 -34 -11 -10 -24 -18 -29
-18 -4 0 -15 -6 -23 -14 -12 -12 -12 -24 2 -88 8 -40 18 -88 21 -106 3 -18 9
-35 14 -38 23 -14 5 -53 -51 -111 -55 -58 -90 -78 -90 -53 0 6 -15 10 -34 10
-19 0 -36 3 -38 8 -4 10 -158 41 -158 32 0 -4 -12 -20 -27 -36 -16 -16 -36
-46 -46 -67 -16 -36 -16 -40 0 -68 10 -16 21 -29 25 -29 4 0 8 -7 8 -15 0 -8
18 -34 40 -57 22 -24 43 -51 46 -60 3 -10 10 -18 15 -18 5 0 6 -7 0 -17 -9
-18 -24 -53 -55 -125 l-16 -37 -83 -4 c-170 -10 -189 -25 -195 -144 -4 -62 -2
-73 12 -73 9 0 16 -4 16 -9 0 -4 35 -26 78 -47 42 -22 79 -42 80 -46 2 -5 9
-8 17 -8 15 0 25 -44 25 -115 0 -62 -7 -85 -25 -85 -7 0 -15 -3 -17 -7 -1 -5
-38 -26 -80 -48 -43 -22 -78 -43 -78 -47 0 -5 -7 -8 -16 -8 -14 0 -16 -8 -10
-61 16 -135 27 -143 219 -155 l77 -6 12 -44 c7 -24 16 -44 20 -44 4 0 8 -9 8
-19 0 -11 5 -23 10 -26 26 -16 8 -63 -47 -121 -7 -7 -13 -15 -13 -18 0 -4 -14
-20 -30 -38 -17 -17 -33 -43 -37 -56 -7 -30 18 -82 64 -131 33 -35 33 -35 78
-23 25 7 54 12 65 12 11 0 20 5 20 10 0 6 13 10 29 10 17 0 33 5 36 10 16 26
58 8 115 -50 47 -46 60 -66 60 -90 0 -16 -4 -30 -9 -30 -5 0 -11 -15 -14 -32
-11 -64 -24 -123 -32 -140 -7 -18 33 -68 55 -68 5 0 10 -3 10 -7 0 -5 18 -16
39 -27 38 -18 40 -18 72 0 18 11 44 29 57 42 12 12 26 22 30 22 4 0 27 19 51
42 26 24 46 37 49 30 2 -7 13 -12 25 -13 12 0 47 -12 77 -27 l55 -27 8 -60 c4
-33 10 -83 13 -111 9 -80 33 -101 127 -109 66 -6 77 -5 77 9 0 9 4 16 9 16 5
0 17 20 28 45 10 25 21 45 26 45 4 0 7 9 7 20 0 11 5 20 10 20 6 0 10 6 10 13
0 7 9 23 20 35 18 19 32 22 95 22 75 0 105 -6 105 -21 0 -12 72 -133 82 -137
4 -2 8 -10 8 -18 0 -8 8 -24 19 -35 17 -19 23 -19 72 -9 30 6 66 14 82 17 16
3 27 12 27 22 0 9 4 21 9 27 10 11 31 138 31 187 0 31 4 35 53 56 28 12 60 27
69 32 23 12 58 12 58 -1 0 -5 5 -10 11 -10 6 0 29 -16 52 -35 22 -19 46 -35
52 -35 6 0 17 -9 25 -20 8 -11 20 -20 26 -20 7 0 14 -6 17 -12 3 -10 10 -10
33 2 16 8 35 20 42 27 7 7 26 20 42 29 16 10 31 27 34 38 7 26 -4 95 -15 102
-5 3 -9 15 -9 28 0 12 -3 26 -7 30 -12 12 -32 80 -25 86 4 3 21 23 37 45 58
78 97 99 143 76 33 -16 89 -31 120 -31 17 0 34 -4 37 -10 13 -21 51 -10 66 18
8 15 16 29 19 32 3 3 12 19 20 35 8 17 19 33 25 37 10 8 -8 46 -37 77 -10 11
-18 24 -18 28 0 4 -20 29 -45 55 -42 45 -58 89 -37 102 4 2 16 34 27 70 l20
66 52 0 c28 0 55 4 58 10 3 6 30 10 60 10 90 0 99 8 114 108 9 56 10 87 3 90
-5 1 -35 18 -67 37 -32 19 -61 35 -66 35 -5 0 -9 5 -9 10 0 6 -8 10 -17 10
-44 1 -53 23 -53 119 0 103 2 107 68 136 23 10 42 22 42 27 0 4 7 8 15 8 8 0
15 5 15 10 0 6 6 10 13 10 6 0 25 11 41 25 l29 25 -12 61 c-19 97 -25 104 -90
117 -31 7 -81 12 -110 12 -42 0 -56 5 -74 24 -40 44 -47 55 -47 76 0 11 -4 20
-9 20 -15 0 -19 49 -5 74 13 26 25 42 62 81 12 13 22 28 22 34 0 5 3 11 8 13
4 2 15 18 25 36 17 30 17 35 3 57 -9 13 -16 29 -16 35 0 5 -15 26 -34 46 l-34
36 -98 -26 c-162 -44 -144 -46 -213 23 -47 47 -61 68 -61 90 0 17 5 33 10 36
6 3 10 21 10 40 0 19 5 37 10 40 6 3 10 23 10 43 0 20 4 43 9 51 12 18 3 41
-15 41 -8 0 -14 4 -14 9 0 5 -25 21 -55 37 l-54 29 -32 -19 c-35 -21 -59 -39
-93 -71 -56 -53 -76 -64 -104 -55 -53 17 -102 36 -108 43 -4 4 -15 7 -25 7
-18 0 -17 -3 -35 173 -3 37 -10 67 -15 67 -5 0 -9 9 -9 19 0 16 -10 21 -57 26
-32 3 -68 8 -79 10 -32 7 -64 -27 -101 -107 -10 -21 -21 -38 -25 -38 -5 0 -8
-9 -8 -20 0 -11 -4 -20 -10 -20 -5 0 -10 -6 -10 -14 0 -21 -23 -26 -112 -26
-82 0 -108 11 -108 44 0 9 -4 16 -10 16 -5 0 -10 7 -10 16 0 17 -50 107 -62
112 -4 2 -8 10 -8 17 0 10 -26 29 -33 24 -1 -1 -27 -5 -57 -9z m508 -421 c13
-5 36 -9 52 -9 16 0 32 -4 35 -10 3 -5 19 -10 36 -10 16 0 29 -4 29 -10 0 -5
9 -10 20 -10 11 0 45 -11 76 -25 31 -14 63 -25 70 -25 8 0 14 -4 14 -8 0 -5
16 -14 35 -22 19 -8 35 -17 35 -20 0 -4 12 -12 26 -19 15 -6 40 -22 57 -34 48
-36 247 -235 247 -248 0 -6 8 -19 18 -28 22 -20 72 -97 72 -111 0 -5 5 -10 10
-10 6 0 10 -6 10 -13 0 -8 11 -36 25 -63 14 -27 25 -57 25 -66 0 -9 5 -20 10
-23 6 -3 10 -17 10 -30 0 -13 4 -26 9 -29 5 -3 12 -23 15 -43 4 -21 12 -63 18
-93 20 -100 11 -430 -13 -454 -5 -6 -9 -25 -9 -43 0 -18 -4 -33 -10 -33 -5 0
-10 -11 -10 -24 0 -14 -4 -28 -10 -31 -5 -3 -10 -15 -10 -25 0 -22 -31 -93
-42 -98 -5 -2 -8 -12 -8 -23 0 -10 -4 -19 -8 -19 -5 0 -14 -16 -22 -35 -8 -19
-17 -35 -21 -35 -4 0 -10 -8 -13 -18 -4 -10 -14 -27 -24 -38 -10 -10 -29 -35
-42 -54 -26 -37 -180 -190 -192 -190 -3 0 -13 -6 -20 -12 -28 -27 -84 -65
-115 -79 -18 -8 -33 -17 -33 -21 0 -5 -9 -8 -20 -8 -11 0 -20 -4 -20 -10 0 -5
-9 -10 -19 -10 -11 0 -21 -3 -23 -7 -5 -12 -128 -56 -170 -61 -21 -2 -38 -8
-38 -13 0 -5 -22 -9 -49 -9 -28 0 -53 -4 -56 -10 -4 -6 -68 -10 -160 -10 -92
0 -156 4 -160 10 -3 6 -28 10 -56 10 -27 0 -49 5 -49 10 0 6 -15 10 -34 10
-19 0 -38 5 -41 10 -3 6 -15 10 -25 10 -11 0 -36 7 -57 16 -63 28 -168 78
-173 84 -3 3 -32 23 -65 44 -124 81 -269 232 -322 334 -9 17 -20 32 -25 32 -4
0 -8 7 -8 15 0 8 -4 15 -10 15 -5 0 -10 9 -10 20 0 11 -4 20 -10 20 -5 0 -10
6 -10 14 0 8 -6 27 -14 43 -8 15 -20 42 -26 58 -7 17 -16 38 -21 47 -5 10 -9
29 -9 42 0 14 -4 27 -9 30 -23 15 -45 293 -32 408 16 144 22 178 32 184 5 3 9
21 9 40 0 19 5 34 10 34 6 0 10 11 10 25 0 14 5 25 10 25 6 0 10 10 10 23 0
12 11 42 25 66 14 23 25 47 25 52 0 6 5 15 10 22 6 7 27 37 47 67 20 30 41 60
47 66 6 6 20 23 31 39 32 44 146 155 160 155 3 0 19 13 36 30 17 16 40 32 50
35 11 4 19 11 19 16 0 5 9 9 20 9 11 0 20 4 20 9 0 11 141 81 164 81 9 0 16 5
16 10 0 6 14 10 30 10 17 0 30 5 30 10 0 6 13 10 29 10 17 0 32 4 35 9 6 9 66
19 181 31 81 8 279 1 313 -11z"/>
<path d="M7233 5212 c-51 -1 -93 -7 -93 -12 0 -6 -12 -10 -27 -10 -33 0 -145
-35 -195 -61 -10 -5 -25 -9 -33 -9 -8 0 -15 -4 -15 -10 0 -5 -9 -10 -20 -10
-11 0 -20 -4 -20 -10 0 -5 -4 -10 -10 -10 -9 0 -120 -67 -130 -79 -3 -3 -21
-18 -40 -32 -61 -46 -138 -126 -195 -205 -11 -15 -25 -32 -30 -38 -6 -6 -19
-30 -30 -53 -11 -24 -23 -43 -27 -43 -5 0 -8 -9 -8 -20 0 -11 -4 -20 -10 -20
-5 0 -10 -9 -10 -20 0 -11 -4 -20 -10 -20 -5 0 -10 -9 -10 -20 0 -10 -6 -34
-14 -52 -21 -50 -36 -102 -36 -124 0 -11 -4 -24 -9 -29 -28 -29 -28 -445 0
-445 5 0 9 -12 9 -26 0 -31 51 -187 62 -192 5 -2 8 -15 8 -28 0 -13 5 -24 10
-24 6 0 10 -9 10 -20 0 -11 3 -20 8 -20 4 0 20 -24 36 -53 16 -28 32 -54 35
-57 3 -3 19 -23 36 -45 34 -46 158 -170 200 -200 16 -11 34 -26 41 -32 7 -7
20 -13 28 -13 9 0 16 -4 16 -8 0 -5 35 -26 78 -48 42 -21 79 -42 80 -46 2 -5
16 -8 31 -8 15 0 31 -4 36 -9 10 -8 84 -28 195 -51 64 -14 316 -8 398 8 73 15
196 54 200 64 2 4 12 8 22 8 10 0 22 5 25 10 3 6 15 10 26 10 10 0 19 3 19 8
0 4 19 16 43 27 23 11 44 22 47 25 3 3 34 27 70 55 75 58 182 164 207 206 10
16 21 29 25 29 4 0 8 4 8 10 0 5 7 18 16 29 24 27 94 160 94 177 0 8 4 14 9
14 5 0 11 12 14 28 3 15 13 52 23 82 9 30 19 75 21 100 3 25 9 49 14 55 13 13
12 315 -1 315 -5 0 -10 17 -10 37 0 20 -4 50 -9 67 -5 17 -17 58 -27 91 -10
33 -21 64 -26 69 -4 6 -8 18 -8 28 0 10 -4 18 -10 18 -5 0 -10 9 -10 20 0 11
-4 20 -8 20 -4 0 -16 20 -26 45 -11 25 -23 45 -28 45 -4 0 -8 7 -8 15 0 8 -4
15 -8 15 -4 0 -16 14 -26 31 -19 33 -80 102 -135 152 -19 18 -44 42 -57 55
-13 12 -27 22 -33 22 -5 0 -11 4 -13 9 -12 32 -291 171 -344 171 -13 0 -24 5
-24 10 0 6 -14 10 -31 10 -17 0 -38 4 -47 9 -21 10 -213 18 -339 13z m312
-110 c54 -11 112 -27 160 -44 35 -12 158 -70 165 -78 9 -9 89 -60 95 -60 11 0
35 -28 35 -40 0 -6 -64 -74 -142 -150 -101 -100 -148 -140 -165 -140 -12 0
-23 4 -23 9 0 9 -32 25 -142 70 -58 24 -205 33 -273 17 -56 -13 -110 -30 -135
-43 -14 -7 -31 -13 -37 -13 -7 0 -13 -4 -13 -10 0 -5 -7 -10 -16 -10 -8 0 -22
-7 -30 -15 -9 -8 -21 -15 -29 -15 -14 0 -295 274 -295 288 0 18 143 122 167
122 7 0 13 5 13 10 0 6 9 10 20 10 11 0 20 5 20 10 0 6 9 10 20 10 11 0 20 3
20 8 0 4 28 15 63 26 34 10 72 22 85 27 13 5 38 9 57 9 19 0 37 5 40 11 8 12
267 6 340 -9z m-991 -514 c11 -10 28 -20 38 -24 10 -3 18 -9 18 -13 0 -5 14
-14 30 -21 17 -7 30 -16 30 -21 0 -5 6 -9 14 -9 8 0 16 -3 18 -8 2 -4 31 -25
65 -47 35 -22 63 -45 63 -50 0 -15 -35 -114 -43 -122 -4 -3 -7 -24 -7 -45 0
-21 -5 -38 -11 -38 -22 0 4 -212 37 -304 l17 -48 -32 -29 c-18 -15 -41 -31
-52 -34 -10 -4 -19 -11 -19 -16 0 -5 -7 -9 -15 -9 -8 0 -15 -3 -15 -8 0 -4
-17 -16 -37 -27 -36 -19 -61 -37 -87 -61 -16 -15 -72 -44 -86 -44 -5 0 -10 7
-10 15 0 8 -4 15 -10 15 -5 0 -10 9 -10 20 0 11 -4 20 -10 20 -5 0 -10 11 -10
25 0 14 -4 25 -9 25 -5 0 -11 10 -14 23 -3 12 -14 56 -25 97 -29 112 -48 299
-33 340 6 18 11 50 11 72 0 21 9 71 21 111 12 39 23 83 26 97 3 14 9 27 12 30
4 3 17 28 31 55 40 83 45 84 104 33z m1669 29 c19 -20 67 -120 67 -139 0 -10
4 -18 9 -18 5 0 11 -12 14 -27 3 -16 15 -64 26 -108 16 -62 20 -112 20 -220 0
-136 -2 -151 -46 -332 -3 -13 -9 -23 -14 -23 -5 0 -9 -11 -9 -25 0 -14 -4 -25
-10 -25 -5 0 -10 -6 -10 -14 0 -8 -10 -32 -22 -55 l-21 -40 -31 16 c-16 9 -35
21 -42 27 -32 30 -56 46 -68 46 -8 0 -16 3 -18 8 -5 12 -105 82 -117 82 -6 0
-11 4 -11 8 0 5 -11 15 -25 22 -14 7 -25 22 -25 31 0 10 11 52 25 93 21 61 25
94 25 183 0 112 -10 161 -50 246 l-22 48 28 24 c16 14 32 25 36 25 4 0 13 6
20 13 8 6 25 19 40 27 14 8 36 23 49 32 46 34 100 68 107 68 4 0 14 9 22 20
16 23 36 26 53 7z m-755 -197 c2 -6 12 -10 23 -10 10 0 19 -4 19 -10 0 -5 7
-10 15 -10 20 0 125 -105 125 -125 0 -8 5 -15 10 -15 6 0 10 -13 10 -30 0 -16
5 -30 10 -30 6 0 10 -35 10 -84 0 -47 -4 -88 -10 -91 -5 -3 -10 -17 -10 -31 0
-13 -4 -24 -9 -24 -5 0 -12 -11 -15 -24 -12 -48 -130 -146 -176 -146 -11 0
-20 -4 -20 -10 0 -12 -173 -14 -198 -1 -51 25 -88 46 -105 60 -40 32 -77 74
-77 87 0 8 -4 14 -10 14 -5 0 -10 8 -10 18 0 10 -4 22 -8 28 -5 5 -14 34 -21
65 -13 63 -4 120 33 199 24 53 104 139 129 140 9 0 17 4 17 9 0 9 22 18 75 32
39 10 189 1 193 -11z m-458 -795 c7 -8 17 -15 22 -15 5 0 18 -9 29 -19 11 -10
57 -31 101 -46 69 -22 98 -26 195 -26 109 0 200 17 227 42 6 5 18 9 28 9 10 0
18 5 18 10 0 6 7 10 15 10 9 0 25 9 37 20 12 11 28 20 36 20 7 0 79 -65 160
-145 142 -142 145 -146 124 -160 -11 -9 -28 -22 -36 -30 -8 -8 -19 -15 -25
-15 -6 0 -11 -4 -11 -8 0 -5 -12 -15 -27 -23 -16 -8 -30 -16 -33 -19 -13 -13
-117 -60 -132 -60 -10 0 -18 -4 -18 -10 0 -5 -11 -10 -25 -10 -14 0 -25 -4
-25 -10 0 -5 -10 -10 -22 -10 -13 0 -45 -7 -72 -15 -27 -8 -68 -15 -90 -15
-23 0 -56 -4 -74 -9 -37 -11 -291 12 -322 29 -10 5 -28 10 -39 10 -12 0 -21 5
-21 10 0 6 -11 10 -25 10 -14 0 -25 5 -25 10 0 6 -7 10 -17 10 -18 0 -146 69
-151 82 -2 4 -8 8 -13 8 -6 0 -15 5 -22 10 -52 44 -73 60 -79 60 -5 0 -8 9 -8
20 0 24 267 290 291 290 9 0 22 -7 29 -15z"/>
<path d="M1095 5640 c-11 -5 -39 -9 -62 -9 -23 -1 -45 -5 -48 -11 -3 -5 -17
-10 -31 -10 -13 0 -24 -4 -24 -10 0 -5 -6 -10 -14 -10 -20 0 -116 -51 -116
-61 0 -5 -6 -9 -13 -9 -7 0 -21 -12 -32 -27 -11 -14 -26 -32 -32 -39 -7 -7
-13 -20 -13 -28 0 -9 -3 -16 -8 -16 -10 0 -32 -96 -32 -135 1 -35 22 -121 33
-131 4 -4 7 -16 7 -26 0 -10 3 -18 8 -18 4 0 13 -13 20 -28 28 -65 124 -132
188 -132 12 0 26 -4 29 -10 9 -14 118 -13 132 1 15 15 43 -11 43 -40 0 -11 5
-23 10 -26 29 -18 -1 -75 -39 -75 -12 0 -21 -4 -21 -10 0 -5 -10 -10 -22 -10
-13 0 -54 -12 -93 -25 -38 -14 -78 -25 -87 -25 -13 0 -18 -8 -18 -29 0 -17 4
-32 9 -35 5 -3 12 -22 15 -41 7 -35 36 -60 44 -37 2 7 17 12 32 12 16 0 32 5
35 10 3 6 15 10 26 10 10 0 27 4 37 9 9 5 58 21 107 36 50 15 98 31 107 36 10
5 27 9 38 9 11 0 20 5 20 10 0 6 16 10 35 10 19 0 35 5 35 10 0 6 11 10 23 10
13 0 27 3 31 7 7 8 78 28 139 40 20 4 27 11 27 29 0 12 -4 26 -10 29 -5 3 -10
15 -10 26 0 10 -6 29 -12 42 -7 12 -14 24 -15 25 -2 5 -76 -20 -88 -30 -5 -4
-22 -8 -37 -8 -15 0 -28 -4 -28 -10 0 -5 -13 -10 -29 -10 -17 0 -32 -4 -35 -9
-3 -5 -22 -12 -42 -16 -40 -7 -54 3 -54 43 0 12 -4 22 -10 22 -5 0 -10 13 -10
30 0 23 5 31 25 36 14 3 25 10 25 15 0 5 6 9 13 9 15 0 97 76 97 90 0 6 5 10
10 10 6 0 10 7 10 15 0 8 4 15 8 15 27 0 48 218 23 243 -6 6 -11 24 -11 39 0
15 -3 28 -8 28 -4 0 -13 15 -21 33 -30 67 -127 137 -211 151 -19 3 -46 8 -60
11 -14 2 -34 0 -45 -5z m144 -164 c39 -21 71 -51 71 -69 0 -8 5 -17 11 -19 15
-5 15 -151 0 -156 -6 -2 -11 -10 -11 -17 0 -11 -27 -37 -87 -85 -7 -6 -19 -10
-27 -10 -8 0 -18 -4 -21 -10 -3 -5 -15 -10 -25 -10 -10 0 -20 -5 -22 -11 -2
-6 -41 -11 -98 -12 -107 -2 -146 10 -176 55 -11 15 -22 28 -26 28 -5 0 -8 11
-8 25 0 14 -4 25 -10 25 -5 0 -10 20 -10 45 0 25 5 45 10 45 6 0 10 10 10 23
0 25 74 107 96 107 8 0 14 4 14 8 0 4 21 14 48 22 136 41 204 45 261 16z"/>
<path d="M13315 5130 c-3 -5 -17 -10 -31 -10 -13 0 -24 -3 -24 -8 0 -4 -15
-13 -32 -21 -37 -16 -128 -106 -128 -127 0 -8 -4 -14 -10 -14 -5 0 -10 -11
-10 -25 0 -14 -4 -25 -8 -25 -14 0 -35 -103 -34 -165 2 -60 36 -165 53 -165 5
0 9 -5 9 -11 0 -14 65 -79 79 -79 6 0 11 -3 11 -7 0 -11 58 -43 76 -43 8 0 14
-4 14 -10 0 -5 9 -10 20 -10 11 0 20 -4 20 -9 0 -23 184 -38 246 -20 24 7 44
17 44 21 0 4 9 8 20 8 11 0 20 5 20 10 0 6 5 10 11 10 18 0 98 88 105 115 3
14 10 25 15 25 5 0 9 9 9 20 0 11 5 20 10 20 6 0 10 11 10 24 0 14 5 28 10 31
6 3 10 44 10 90 0 46 -4 87 -10 90 -5 3 -10 17 -10 31 0 13 -4 24 -10 24 -5 0
-10 7 -10 16 0 38 -187 184 -236 184 -8 0 -14 5 -14 10 0 6 -15 10 -34 10 -19
0 -38 5 -41 10 -3 6 -37 10 -75 10 -38 0 -72 -4 -75 -10z m145 -154 c65 -20
103 -38 121 -58 9 -10 23 -18 30 -18 18 -1 69 -68 69 -92 0 -10 5 -18 10 -18
6 0 10 -24 10 -54 0 -54 -26 -121 -60 -157 -63 -66 -170 -78 -277 -33 -35 15
-63 31 -63 36 0 4 -7 8 -16 8 -19 0 -94 77 -94 96 0 8 -4 14 -10 14 -6 0 -10
32 -10 75 0 41 4 75 9 75 5 0 12 11 15 25 14 55 107 114 181 115 22 0 60 -6
85 -14z"/>
<path d="M1635 4365 c-50 -30 -105 -93 -105 -122 0 -12 -4 -25 -10 -28 -5 -3
-10 -21 -10 -40 0 -19 5 -37 10 -40 6 -3 10 -22 10 -41 0 -19 4 -34 8 -34 5 0
14 -16 22 -35 8 -19 17 -35 21 -35 4 0 15 -20 26 -45 10 -25 21 -45 26 -45 4
0 7 -7 7 -16 0 -8 7 -22 15 -30 19 -20 11 -37 -28 -53 -17 -8 -34 -17 -37 -20
-5 -6 -98 -57 -137 -76 -13 -5 -23 -13 -23 -17 0 -5 -7 -8 -15 -8 -8 0 -15 -4
-15 -10 0 -5 3 -10 8 -10 4 0 13 -14 21 -32 8 -17 23 -41 33 -54 17 -18 23
-20 44 -10 13 6 24 14 24 19 0 4 9 7 19 7 11 0 21 3 23 8 4 9 76 51 101 59 9
3 17 9 17 14 0 5 9 9 20 9 11 0 20 5 20 10 0 6 5 10 11 10 5 0 27 11 47 25 20
14 45 25 54 25 10 0 18 5 18 10 0 6 7 10 15 10 8 0 15 4 15 9 0 5 8 11 18 15
25 8 168 89 199 112 25 19 26 21 12 52 -8 18 -17 32 -20 32 -3 0 -14 20 -25
45 -10 25 -22 45 -26 45 -4 0 -8 9 -8 20 0 11 -4 20 -10 20 -5 0 -10 7 -10 15
0 8 -4 15 -10 15 -5 0 -10 9 -10 20 0 11 -4 20 -8 20 -5 0 -16 18 -25 39 -19
41 -96 127 -134 149 -39 21 -152 14 -198 -13z m150 -125 c44 -17 80 -62 127
-160 12 -25 26 -46 30 -48 4 -2 8 -17 8 -33 0 -22 -5 -29 -20 -29 -11 0 -20
-3 -20 -8 0 -4 -15 -13 -32 -21 -18 -8 -41 -20 -50 -28 -23 -20 -61 -12 -73
15 -5 12 -13 22 -17 22 -5 0 -8 9 -8 20 0 11 -4 20 -10 20 -5 0 -10 6 -10 14
0 8 -3 16 -7 18 -17 7 -43 81 -43 122 0 44 16 72 55 94 25 14 37 15 70 2z"/>
<path d="M12634 4058 c-15 -24 -31 -44 -35 -46 -21 -8 -6 -40 26 -58 19 -10
35 -22 35 -26 0 -5 6 -8 13 -8 7 0 23 -9 35 -20 12 -11 24 -20 26 -20 10 0
121 -73 124 -82 2 -4 12 -8 23 -8 10 0 19 -4 19 -9 0 -5 25 -21 55 -37 30 -16
55 -32 55 -36 0 -5 7 -8 15 -8 8 0 15 -4 15 -10 0 -5 6 -10 13 -10 15 0 67
-44 67 -56 0 -5 -9 -16 -20 -24 -11 -8 -20 -22 -20 -32 0 -10 -4 -18 -10 -18
-5 0 -10 -4 -10 -10 0 -5 -11 -26 -25 -46 -28 -42 -32 -64 -10 -64 8 0 15 -4
15 -8 0 -10 45 -32 63 -32 12 1 67 83 67 101 0 5 4 9 9 9 5 0 21 25 37 55 16
30 32 55 37 55 4 0 7 7 7 15 0 8 5 15 10 15 6 0 10 6 10 13 0 7 8 22 19 33 10
11 22 30 25 42 4 12 12 22 17 22 5 0 9 8 9 18 0 10 9 24 20 32 11 8 20 20 20
26 0 7 4 14 8 16 5 2 12 15 16 31 5 20 3 27 -9 27 -8 0 -15 3 -15 8 0 4 -14
15 -31 24 -26 16 -32 16 -45 4 -8 -8 -14 -19 -14 -25 0 -6 -4 -11 -10 -11 -5
0 -10 -5 -10 -10 0 -11 -47 -87 -67 -107 -14 -15 -43 -17 -43 -3 0 6 -4 10
-10 10 -9 0 -72 39 -97 60 -7 5 -17 10 -23 10 -5 0 -10 5 -10 10 0 6 -9 10
-20 10 -11 0 -20 3 -20 8 0 4 -29 25 -65 47 -36 22 -65 43 -65 47 0 4 -4 8
-10 8 -5 0 -41 20 -80 45 -39 25 -75 45 -80 45 -6 0 -10 5 -10 10 0 22 -21 7
-46 -32z"/>
<path d="M9701 3944 c0 -11 3 -14 6 -6 3 7 2 16 -1 19 -3 4 -6 -2 -5 -13z"/>
<path d="M4990 3915 c0 -8 5 -15 10 -15 6 0 10 7 10 15 0 8 -4 15 -10 15 -5 0
-10 -7 -10 -15z"/>
<path d="M12234 3481 c-11 -10 -36 -39 -57 -64 -21 -26 -63 -72 -93 -102 -30
-31 -54 -59 -54 -63 0 -4 -18 -26 -40 -50 -22 -23 -40 -48 -40 -56 0 -8 -6
-16 -12 -18 -9 -3 -13 -30 -13 -88 0 -58 4 -85 13 -87 6 -3 12 -10 12 -17 0
-17 50 -68 84 -86 35 -18 140 -20 158 -2 21 21 28 14 28 -28 0 -38 32 -123 55
-145 31 -31 89 -47 151 -42 67 6 83 16 143 81 20 21 54 58 76 81 68 72 105
114 105 120 0 3 16 22 36 42 l37 37 -34 29 c-19 17 -65 59 -104 93 -38 35 -81
73 -95 85 -53 44 -134 116 -185 164 -29 28 -65 59 -81 70 -15 11 -38 30 -50
42 -21 21 -22 21 -40 4z m26 -189 c0 -4 12 -15 28 -24 44 -27 102 -84 102
-102 0 -18 -32 -57 -118 -143 -52 -52 -69 -59 -132 -54 -38 3 -80 53 -80 95 0
20 5 36 10 36 6 0 10 6 10 13 0 7 20 35 45 60 25 26 45 50 45 52 0 3 14 21 32
40 29 32 58 46 58 27z m293 -257 c25 -25 50 -45 55 -45 5 0 12 -7 16 -15 6
-16 -4 -31 -64 -95 -19 -20 -45 -48 -57 -61 -47 -52 -80 -62 -126 -37 -52 27
-63 93 -24 140 12 15 29 36 38 47 42 55 95 110 106 111 6 0 32 -20 56 -45z"/>
<path d="M2445 3408 c-21 -18 -50 -45 -66 -59 -15 -14 -44 -39 -65 -55 -21
-16 -67 -57 -102 -91 -35 -35 -67 -63 -71 -63 -4 0 -30 -22 -59 -50 -46 -44
-92 -65 -92 -42 0 4 -25 34 -55 67 -30 33 -55 63 -55 68 0 14 -33 7 -49 -11
-9 -10 -26 -25 -38 -33 l-21 -15 26 -31 c15 -17 41 -48 57 -68 17 -20 45 -52
63 -70 17 -19 32 -37 32 -40 0 -3 10 -16 23 -29 20 -20 120 -132 167 -186 24
-28 45 -25 85 13 l35 33 -37 45 c-21 24 -53 59 -70 77 -48 48 -47 53 32 117
20 17 52 45 70 63 19 17 37 32 40 32 3 0 21 15 39 33 18 17 61 57 96 87 133
117 159 144 147 156 -7 6 -25 27 -41 48 -15 20 -34 36 -40 36 -7 0 -30 -15
-51 -32z"/>
<path d="M2925 2828 c-56 -19 -110 -42 -120 -50 -10 -9 33 -98 47 -98 5 0 8
-9 8 -20 0 -11 5 -20 10 -20 6 0 10 5 10 10 0 6 9 10 20 10 11 0 20 5 20 10 0
6 9 10 19 10 11 0 23 5 26 10 3 6 22 10 41 10 19 0 34 -4 34 -10 0 -5 9 -10
20 -10 11 0 20 -4 20 -10 0 -5 4 -10 10 -10 15 0 60 -42 60 -57 0 -7 5 -13 10
-13 6 0 10 -32 10 -75 0 -43 -4 -75 -10 -75 -5 0 -10 -5 -10 -12 0 -28 -136
-188 -159 -188 -4 0 -17 -9 -29 -20 -26 -25 -126 -30 -162 -9 -81 47 -122 130
-101 205 6 21 9 38 8 39 -1 0 -26 13 -54 28 -62 32 -83 34 -83 8 0 -11 -4 -23
-10 -26 -5 -3 -10 -40 -10 -81 0 -43 4 -74 10 -74 6 0 10 -11 10 -25 0 -14 4
-25 9 -25 5 0 13 -10 17 -22 3 -12 27 -41 51 -64 103 -99 251 -133 368 -84 11
4 27 11 35 14 46 18 175 142 200 191 8 17 17 32 20 35 17 15 35 105 35 170 -1
97 -34 173 -99 229 -10 9 -28 25 -40 36 -27 26 -90 53 -141 61 -22 3 -47 7
-55 9 -8 1 -28 -2 -45 -7z"/>
<path d="M11524 2737 c-6 -7 -28 -25 -49 -42 -20 -16 -56 -47 -79 -70 -23 -22
-64 -58 -90 -80 -27 -22 -61 -51 -76 -65 -16 -14 -48 -42 -73 -63 l-45 -39 41
-43 c48 -51 46 -51 134 32 34 32 82 76 108 98 25 22 57 50 70 63 13 12 28 22
34 22 5 0 11 6 14 13 4 13 37 -19 92 -88 17 -21 36 -45 44 -53 12 -12 6 -21
-40 -64 -30 -28 -70 -62 -89 -77 -19 -14 -58 -49 -87 -77 l-54 -50 36 -47 36
-47 32 30 c18 16 35 30 39 30 4 0 35 28 71 63 61 59 131 118 148 125 9 4 58
-45 97 -96 l25 -33 -28 -22 c-15 -12 -45 -38 -66 -57 -21 -19 -59 -53 -85 -75
-103 -89 -132 -120 -120 -131 6 -6 24 -26 40 -45 18 -21 30 -29 33 -21 3 6 9
12 14 12 10 0 56 39 115 98 18 17 36 32 39 32 5 0 46 35 110 95 17 17 52 48
78 70 26 22 47 47 47 55 0 8 -15 32 -32 52 -18 20 -58 64 -88 99 -30 34 -71
79 -90 99 -19 21 -44 50 -55 66 -11 15 -46 54 -77 86 -32 32 -58 61 -58 64 0
3 -16 22 -35 42 -19 20 -35 40 -35 45 0 11 -34 7 -46 -6z"/>
<path d="M5540 2500 c0 -11 -4 -20 -10 -20 -5 0 -10 -7 -10 -15 0 -8 -4 -23
-9 -33 -5 -9 -17 -37 -26 -62 -9 -25 -21 -53 -26 -62 -5 -10 -9 -25 -9 -33 0
-8 -4 -15 -10 -15 -5 0 -10 -9 -10 -20 0 -11 -5 -30 -12 -43 -36 -70 -36 -71
2 -87 39 -16 54 -4 71 55 7 25 17 45 21 45 4 0 8 11 8 25 0 18 5 25 19 25 31
0 39 -20 46 -122 6 -76 11 -98 24 -102 9 -4 29 -10 44 -15 l28 -9 -6 61 c-9
89 -25 166 -36 172 -15 10 -10 35 6 35 8 0 35 20 59 45 39 39 51 45 85 45 37
0 41 2 41 25 0 19 -5 25 -21 25 -11 0 -30 5 -42 11 -16 9 -22 9 -25 0 -2 -6
-11 -11 -19 -11 -8 0 -34 -20 -57 -44 -84 -87 -122 -84 -90 6 11 29 22 55 27
56 4 2 7 17 7 32 0 32 -2 34 -42 44 -24 5 -28 3 -28 -14z"/>
<path d="M9110 2499 c-36 -11 -69 -25 -74 -30 -6 -5 -18 -9 -29 -9 -30 0 -50
-26 -37 -49 5 -11 10 -29 10 -40 0 -12 5 -21 10 -21 6 0 10 -9 10 -19 0 -11 5
-23 10 -26 6 -3 10 -15 10 -26 0 -10 3 -19 8 -19 4 0 16 -29 27 -65 10 -36 23
-65 27 -65 4 0 8 -11 8 -25 0 -14 5 -25 10 -25 6 0 10 -9 10 -20 0 -13 7 -20
20 -20 11 0 20 5 20 10 0 6 7 10 15 10 16 0 21 49 7 65 -5 6 -16 28 -25 51
-14 38 -14 41 4 52 10 7 26 12 34 12 8 0 15 5 15 10 0 6 6 10 14 10 29 0 76
36 92 69 23 47 13 113 -23 151 -38 40 -90 46 -173 19z m116 -76 c32 -43 7 -89
-65 -119 -44 -18 -71 -10 -71 22 0 13 -4 24 -9 24 -10 0 -19 40 -13 58 2 7 12
12 22 12 10 0 22 5 25 10 11 18 96 12 111 -7z"/>
<path d="M5887 2328 c-10 -35 -22 -81 -28 -103 -6 -22 -15 -48 -20 -57 -5 -10
-9 -28 -9 -41 0 -13 -3 -27 -7 -31 -12 -12 -31 -104 -24 -114 3 -6 19 -12 36
-13 25 -4 31 0 38 26 5 17 13 38 18 47 5 10 9 30 9 44 0 26 1 26 52 20 28 -4
59 -11 69 -17 72 -38 169 35 169 126 0 52 -41 115 -74 115 -8 0 -18 5 -21 10
-3 6 -19 10 -36 10 -16 0 -29 4 -29 9 0 4 -17 11 -37 14 -21 4 -49 9 -63 13
-24 5 -26 2 -43 -58z m148 -38 c3 -5 13 -10 21 -10 45 0 61 -81 23 -114 -15
-12 -30 -16 -50 -12 -16 3 -42 9 -59 12 -34 7 -38 28 -18 94 12 36 16 40 45
40 17 0 35 -4 38 -10z"/>
<path d="M8690 2360 c0 -5 -11 -10 -24 -10 -25 0 -23 10 -47 -265 -5 -55 -11
-122 -15 -149 -6 -44 -4 -48 12 -43 11 3 31 8 47 11 25 6 27 10 27 59 0 52 0
52 40 65 22 6 51 12 65 12 14 0 25 5 25 10 0 19 41 10 65 -15 14 -13 25 -28
25 -33 0 -27 83 -16 88 10 2 10 -7 28 -20 41 -13 13 -32 36 -43 51 -11 16 -30
39 -42 52 -13 13 -23 26 -23 29 0 4 -6 12 -12 20 -7 7 -22 25 -32 40 -11 14
-28 36 -39 48 -10 12 -26 34 -35 50 -16 26 -62 39 -62 17z m55 -132 c10 -18
27 -42 37 -52 10 -11 18 -25 18 -32 0 -7 5 -14 12 -16 7 -3 -11 -12 -39 -21
-61 -20 -87 -14 -79 17 3 12 8 48 12 79 4 31 10 57 13 57 4 0 15 -15 26 -32z"/>
<path d="M8326 2273 c-4 -4 -32 -11 -64 -15 -31 -5 -74 -11 -96 -15 l-39 -5 7
-62 c22 -207 19 -316 -10 -316 -17 0 -18 -25 -2 -102 12 -56 13 -59 38 -53 36
9 43 20 31 43 -6 11 -11 27 -11 35 0 19 43 37 90 37 21 0 42 5 45 10 3 6 28
10 54 10 26 0 52 5 58 11 17 17 43 -13 43 -50 0 -29 3 -31 35 -31 39 0 42 8
26 70 -5 19 -12 47 -15 63 -4 18 -13 27 -26 27 -16 0 -20 7 -20 33 0 18 -4 37
-9 42 -5 6 -11 30 -14 55 -4 45 -23 154 -32 198 -4 18 -12 22 -44 22 -21 0
-41 -3 -45 -7z m18 -82 c7 -11 27 -128 33 -196 3 -27 10 -56 15 -62 12 -15 6
-19 -82 -37 -36 -7 -69 -10 -74 -6 -4 5 -10 57 -13 117 -2 59 -5 124 -6 143
-2 34 0 35 38 41 63 10 83 10 89 0z"/>
<path d="M6373 2263 c-7 -2 -13 -13 -13 -24 0 -10 -4 -19 -10 -19 -5 0 -10 -6
-10 -14 0 -8 -4 -16 -8 -18 -4 -1 -19 -23 -33 -48 -43 -76 -54 -95 -60 -100
-3 -3 -19 -27 -34 -55 -16 -27 -32 -52 -35 -55 -3 -3 -11 -15 -18 -27 -11 -20
-10 -23 7 -23 11 0 23 -4 26 -10 10 -16 45 -12 45 5 0 8 3 15 8 15 4 0 13 14
20 30 12 26 19 30 52 30 21 0 42 -4 45 -10 3 -5 25 -10 47 -10 49 0 67 -19 68
-71 0 -38 14 -49 68 -49 17 0 22 6 22 25 0 14 -4 25 -10 25 -5 0 -10 19 -10
43 0 24 -4 47 -9 52 -5 6 -11 28 -14 50 -3 22 -10 60 -16 85 -6 25 -15 72 -21
105 -6 32 -12 60 -13 61 -7 5 -84 11 -94 7z m57 -220 l0 -43 -39 0 c-22 0 -46
3 -55 6 -17 7 -22 34 -6 34 6 0 10 9 10 20 0 11 5 20 10 20 6 0 10 6 10 14 0
7 10 26 21 41 l22 27 13 -39 c8 -21 14 -57 14 -80z"/>
<path d="M6766 2185 c-8 -8 -19 -15 -25 -15 -17 0 -71 -87 -71 -114 0 -14 -4
-28 -10 -31 -14 -9 -12 -73 3 -115 25 -68 39 -87 80 -113 34 -22 52 -27 107
-27 75 0 120 21 145 69 21 41 19 47 -16 61 -26 11 -33 11 -39 -1 -27 -47 -50
-61 -99 -61 -51 0 -64 7 -88 50 -15 26 -18 172 -3 172 6 0 10 6 10 13 0 31 45
57 97 57 51 0 72 -13 86 -52 10 -29 87 -21 87 8 0 25 -62 91 -97 105 -40 15
-149 11 -167 -6z"/>
<path d="M7746 2193 c-100 -26 -152 -133 -127 -265 16 -90 74 -158 134 -158
11 0 36 -6 55 -12 28 -10 36 -10 39 0 3 6 18 12 34 12 30 0 39 5 85 48 50 47
69 153 43 245 -12 44 -59 97 -106 121 -31 15 -113 20 -157 9z m142 -83 c46
-38 69 -158 41 -213 -16 -31 -45 -57 -64 -57 -8 0 -15 -4 -15 -10 0 -5 -16
-10 -35 -10 -19 0 -35 3 -35 8 0 4 -13 13 -29 20 -21 9 -32 25 -45 63 -28 88
-15 156 38 201 29 24 113 24 144 -2z"/>
<path d="M7156 2003 c-3 -98 -8 -195 -12 -215 l-6 -38 46 0 46 0 0 90 0 90 96
0 95 0 -3 -92 -3 -93 29 -3 c16 -2 32 0 36 5 5 4 11 101 15 216 l7 207 -40 0
-41 0 -3 -82 -3 -83 -70 -3 c-115 -5 -117 -4 -115 81 1 40 1 78 1 85 -1 7 -15
12 -35 12 l-34 0 -6 -177z"/>
<path d="M3735 2160 c-3 -5 -17 -10 -31 -10 -13 0 -24 -4 -24 -8 0 -4 -13 -16
-29 -25 -40 -24 -118 -103 -126 -127 -4 -11 -11 -20 -16 -20 -5 0 -9 -9 -9
-20 0 -11 -3 -20 -8 -20 -8 0 -23 -34 -42 -95 -17 -59 -2 -245 21 -245 5 0 9
-7 9 -15 0 -8 27 -42 60 -75 33 -33 67 -60 75 -60 8 0 15 -4 15 -8 0 -8 67
-34 125 -48 61 -14 181 5 227 37 14 11 28 19 31 19 20 0 137 144 137 170 0 5
5 10 10 10 6 0 10 9 10 20 0 11 5 20 10 20 6 0 10 11 10 25 0 14 5 25 10 25 6
0 10 38 10 94 0 53 -4 98 -10 101 -5 3 -10 15 -10 26 0 10 -4 19 -10 19 -5 0
-10 7 -10 16 0 8 -7 22 -15 30 -8 8 -18 21 -22 28 -14 23 -128 106 -145 106
-10 0 -18 3 -18 8 0 25 -220 46 -235 22z m191 -136 c93 -39 133 -98 134 -196
0 -63 -21 -137 -42 -146 -5 -2 -8 -10 -8 -19 0 -20 -113 -133 -133 -133 -9 0
-19 -4 -22 -10 -11 -18 -99 -11 -146 11 -126 61 -160 178 -91 319 15 30 41 69
58 87 18 17 33 36 35 41 7 19 104 61 140 62 20 0 54 -7 75 -16z"/>
<path d="M10623 2067 c-13 -5 -23 -14 -23 -19 0 -4 -7 -8 -15 -8 -8 0 -15 -4
-15 -9 0 -5 -9 -11 -20 -14 -20 -5 -30 -47 -11 -47 5 0 14 -13 21 -30 7 -16
16 -30 21 -30 4 0 11 -10 15 -22 3 -12 15 -31 25 -42 11 -11 19 -26 19 -33 0
-7 5 -13 10 -13 6 0 10 -6 10 -14 0 -8 3 -16 8 -18 10 -4 62 -86 62 -98 0 -5
4 -10 9 -10 5 0 14 -13 21 -30 7 -16 15 -30 19 -30 4 0 15 -16 25 -35 11 -19
23 -35 28 -35 4 0 8 -9 8 -20 0 -11 5 -20 10 -20 19 0 10 -42 -10 -47 -11 -3
-20 -9 -20 -13 0 -4 -21 -19 -47 -33 -27 -15 -58 -35 -71 -44 l-22 -18 25 -37
c14 -20 25 -42 25 -47 0 -17 29 -13 51 8 11 10 37 27 59 37 22 10 40 22 40 27
0 4 5 7 10 7 6 0 20 8 31 19 11 10 37 27 57 37 20 11 44 27 53 37 9 9 23 17
32 17 8 0 17 4 19 8 3 9 114 82 124 82 12 0 34 29 34 45 0 9 -9 25 -20 37 -11
12 -20 28 -20 35 0 7 -4 13 -8 13 -15 0 -62 -25 -62 -32 0 -5 -5 -8 -10 -8 -6
0 -16 -5 -23 -10 -28 -24 -89 -60 -100 -60 -7 0 -21 16 -31 35 -11 19 -23 35
-28 35 -4 0 -8 8 -8 18 0 10 -9 24 -20 32 -11 8 -20 20 -20 26 0 7 -6 19 -12
26 -7 7 -19 25 -27 40 -8 15 -22 36 -31 45 -9 10 -29 42 -46 70 -16 29 -32 53
-36 53 -5 0 -8 7 -8 16 0 9 -8 24 -19 33 -10 9 -21 26 -25 39 -4 12 -12 22
-17 22 -5 0 -9 6 -9 14 0 21 -12 25 -37 13z"/>
<path d="M4659 1665 c-7 -25 -17 -45 -21 -45 -4 0 -8 -11 -8 -25 0 -14 -4 -25
-10 -25 -5 0 -10 -8 -10 -18 0 -10 -8 -36 -19 -58 -10 -21 -22 -54 -26 -71 -3
-18 -11 -35 -16 -38 -5 -4 -9 -17 -9 -31 0 -13 -4 -24 -10 -24 -5 0 -10 -7
-10 -15 0 -8 -4 -23 -9 -33 -14 -28 -28 -62 -56 -142 -14 -41 -30 -83 -36 -92
-16 -31 -10 -43 34 -60 88 -36 91 -35 107 21 7 28 17 51 22 51 4 0 8 11 8 25
0 14 5 25 10 25 6 0 10 6 10 14 0 7 10 37 22 65 15 36 24 49 32 41 5 -5 20
-10 33 -10 13 0 23 -4 23 -10 0 -5 9 -10 20 -10 17 0 66 -18 112 -41 10 -5 25
-9 33 -9 8 0 15 -4 15 -10 0 -5 9 -10 20 -10 13 0 20 -7 20 -20 0 -11 -4 -20
-10 -20 -5 0 -10 -11 -10 -25 0 -14 -4 -25 -10 -25 -5 0 -10 -10 -10 -23 0
-13 -4 -27 -9 -33 -5 -5 -16 -34 -26 -64 -10 -30 -22 -61 -28 -67 -7 -9 -5
-13 7 -13 9 0 16 -4 16 -10 0 -5 14 -10 30 -10 17 0 30 -4 30 -9 0 -5 11 -11
24 -13 24 -5 46 17 46 47 0 8 5 15 10 15 6 0 10 8 10 18 0 21 51 155 81 214 5
10 9 27 9 38 0 11 5 20 10 20 6 0 10 10 10 23 0 13 4 27 8 33 5 5 17 32 26 59
19 55 34 91 47 117 5 10 9 26 9 37 0 11 4 21 9 23 5 2 12 18 16 36 6 28 4 32
-14 32 -11 0 -23 5 -26 10 -3 6 -17 10 -31 10 -13 0 -24 5 -24 10 0 6 -9 10
-20 10 -13 0 -20 -7 -20 -20 0 -11 -3 -20 -7 -20 -5 0 -17 -30 -28 -66 -11
-36 -23 -68 -27 -70 -5 -3 -8 -14 -8 -25 0 -10 -4 -19 -10 -19 -5 0 -10 -8
-10 -18 0 -45 -38 -89 -55 -63 -3 5 -20 13 -37 17 -18 3 -39 10 -48 14 -8 4
-28 13 -45 20 -16 7 -38 16 -47 21 -10 5 -25 9 -34 9 -8 0 -22 6 -30 14 -16
17 -19 46 -4 46 6 0 10 8 10 18 0 19 32 107 43 118 4 4 7 18 7 31 0 13 5 23
10 23 6 0 10 11 10 24 0 14 5 28 10 31 20 12 9 33 -22 45 -18 6 -41 16 -50 21
-38 20 -55 11 -69 -36z"/>
<path d="M9780 1630 c0 -5 -16 -10 -35 -10 -19 0 -35 -4 -35 -10 0 -5 -9 -10
-20 -10 -11 0 -20 -4 -20 -10 0 -5 -6 -10 -13 -10 -29 0 -127 -111 -127 -145
0 -8 -4 -15 -10 -15 -6 0 -10 -32 -10 -76 l0 -77 53 7 c28 3 61 6 72 6 18 0
20 5 17 36 -5 38 19 111 46 141 26 28 88 53 132 53 77 0 145 -52 189 -145 66
-139 78 -222 40 -284 -26 -44 -39 -56 -83 -80 -62 -35 -135 -27 -190 22 -20
18 -56 23 -56 9 0 -5 -12 -15 -27 -23 -16 -8 -36 -21 -46 -31 -18 -16 -18 -17
10 -48 54 -61 163 -92 253 -73 100 21 155 47 205 98 33 33 75 103 75 124 0 11
5 23 10 26 6 3 10 44 10 90 0 46 -4 87 -10 90 -5 3 -10 19 -10 36 0 16 -4 29
-10 29 -5 0 -10 9 -10 19 0 11 -4 22 -9 26 -5 3 -12 19 -16 35 -4 17 -11 30
-16 30 -5 0 -9 4 -9 10 0 11 -34 53 -68 84 -36 33 -100 66 -127 66 -14 0 -25
5 -25 10 0 6 -28 10 -65 10 -37 0 -65 -4 -65 -10z"/>
<path d="M5630 1335 c0 -14 -4 -25 -10 -25 -5 0 -10 -17 -10 -38 0 -21 -3 -42
-7 -46 -7 -7 -26 -96 -40 -189 -3 -20 -9 -40 -14 -43 -5 -3 -9 -23 -9 -45 0
-21 -4 -39 -10 -39 -5 0 -10 -16 -10 -35 0 -19 -4 -43 -9 -53 -5 -9 -15 -46
-21 -82 -25 -126 -25 -120 3 -120 14 0 27 -4 29 -9 2 -4 22 -10 46 -14 38 -5
42 -3 42 17 0 12 4 26 9 32 5 5 11 27 14 49 3 22 13 73 23 113 l17 74 39 -6
c21 -3 56 -9 78 -12 22 -3 43 -10 46 -15 3 -5 23 -9 45 -9 21 0 39 -4 39 -10
0 -5 14 -10 31 -10 29 0 31 -2 25 -27 -3 -16 -9 -44 -12 -63 -3 -19 -9 -44
-14 -55 -9 -20 -16 -56 -27 -126 -5 -36 -4 -37 34 -42 21 -3 52 -9 68 -12 l30
-7 23 95 c12 52 22 106 22 121 0 14 5 26 10 26 6 0 10 15 10 33 0 18 4 37 9
43 5 5 11 27 14 49 3 22 10 60 16 85 35 150 43 189 50 225 5 22 10 47 12 55 3
11 -7 16 -38 18 -24 2 -43 7 -43 13 0 13 -46 11 -58 -3 -9 -12 -14 -35 -28
-131 -4 -20 -10 -40 -15 -43 -5 -3 -9 -23 -9 -44 0 -21 -4 -42 -10 -45 -5 -3
-10 -15 -10 -26 0 -22 -2 -23 -100 -3 -41 9 -92 18 -113 21 -20 3 -40 9 -43
14 -3 5 -16 9 -30 9 -17 0 -24 5 -24 20 0 11 5 20 10 20 6 0 10 20 10 45 0 25
5 45 10 45 6 0 10 13 10 30 0 16 7 55 15 87 19 71 19 83 1 83 -8 0 -16 4 -18
9 -1 4 -27 11 -55 15 -52 7 -53 6 -53 -19z"/>
<path d="M8870 1321 c0 -6 -19 -11 -42 -13 -43 -3 -43 -3 -46 -45 -2 -26 1
-43 7 -43 6 0 11 -20 11 -45 0 -25 4 -45 9 -45 5 0 11 -17 14 -37 3 -21 13
-69 22 -108 32 -140 37 -161 42 -202 3 -24 9 -43 14 -43 14 0 11 -67 -3 -72
-7 -3 -44 -11 -83 -18 -94 -17 -127 -31 -118 -50 3 -8 8 -32 11 -52 4 -37 6
-38 42 -38 22 0 42 5 45 10 3 6 21 10 40 10 19 0 36 4 39 9 3 5 23 11 43 14
21 3 72 13 113 22 41 9 92 19 113 22 20 3 37 9 37 14 0 5 18 9 39 9 22 0 43 5
46 10 3 6 15 10 27 10 17 0 19 4 13 23 -4 12 -9 37 -12 55 -5 30 -7 32 -49 32
-24 0 -44 -4 -44 -10 0 -5 -18 -10 -39 -10 -22 0 -43 -4 -46 -10 -3 -5 -19
-10 -34 -10 -25 0 -28 4 -39 63 -7 34 -17 82 -23 107 -6 25 -13 62 -16 83 -3
20 -9 37 -14 37 -5 0 -9 16 -9 35 0 19 -4 43 -9 53 -5 9 -15 44 -21 77 -26
128 -39 165 -60 165 -11 0 -20 -4 -20 -9z"/>
<path d="M8045 1170 c-44 -4 -131 -11 -192 -15 -62 -4 -113 -12 -113 -17 0 -4
-11 -8 -25 -8 -14 0 -25 -4 -25 -10 0 -5 -9 -10 -19 -10 -11 0 -22 -8 -25 -18
-4 -10 -14 -27 -24 -38 -70 -78 -47 -222 44 -277 25 -15 49 -27 54 -27 19 0
10 -18 -20 -41 -16 -13 -30 -32 -30 -41 0 -9 -4 -20 -10 -23 -5 -3 -10 -35
-10 -71 0 -36 4 -64 10 -64 6 0 10 -6 10 -14 0 -19 57 -76 76 -76 8 0 14 -5
14 -11 0 -11 242 -7 419 7 l73 6 -5 121 c-5 126 -31 465 -43 575 l-7 62 -36
-2 c-20 0 -72 -4 -116 -8z m11 -128 c7 -4 13 -46 15 -105 l4 -97 -27 0 c-15 0
-29 -4 -32 -8 -8 -13 -203 -15 -218 -2 -7 5 -24 19 -36 30 -33 27 -34 96 -2
133 13 15 31 27 40 27 9 0 20 4 26 10 5 5 47 11 94 13 47 1 94 4 105 5 11 1
25 -2 31 -6z m36 -374 c3 -71 3 -77 11 -84 4 -4 7 -18 7 -31 0 -21 -4 -23 -59
-23 -33 0 -62 -4 -65 -8 -7 -11 -136 -15 -136 -4 0 6 -9 12 -19 15 -10 2 -26
20 -36 40 -15 32 -15 38 -1 65 28 54 70 69 199 71 l97 1 2 -42z"/>
<path d="M6609 1154 c0 -10 -2 -35 -4 -55 l-4 -36 63 -11 c35 -7 104 -12 154
-12 50 0 94 -4 97 -10 3 -5 31 -10 61 -10 l55 0 -2 -52 c-1 -29 -6 -79 -12
-111 l-9 -59 -42 6 c-54 8 -141 15 -248 19 l-86 3 -4 -40 c-3 -23 -8 -48 -12
-57 -8 -18 -24 -16 269 -37 55 -4 105 -10 110 -14 6 -3 9 -40 7 -87 l-4 -81
-119 0 c-73 0 -119 4 -119 10 0 6 -37 10 -90 10 -88 0 -90 -1 -90 -24 0 -13
-3 -37 -6 -53 -6 -28 -4 -30 38 -41 23 -6 95 -14 158 -17 63 -3 168 -9 232
-13 100 -6 119 -5 125 8 3 8 10 71 14 140 5 69 13 190 19 270 6 80 13 186 16
236 l5 92 -53 6 c-29 3 -116 10 -193 15 -77 6 -182 13 -232 17 -87 7 -93 6
-94 -12z"/>
</g>
</svg>
