<svg version="1.1" xmlns="http://www.w3.org/2000/svg" xmlns:xlink="http://www.w3.org/1999/xlink" width="100px" height="100px" viewBox="0,0,256,256"><g fill="#ffffff" fill-rule="nonzero" stroke="none" stroke-width="1" stroke-linecap="butt" stroke-linejoin="miter" stroke-miterlimit="10" stroke-dasharray="" stroke-dashoffset="0" font-family="none" font-weight="none" font-size="none" text-anchor="none" style="mix-blend-mode: normal"><g transform="scale(2.56,2.56)"><path d="M22.91668,12.5h54.16658c5.753,0 10.41675,4.6637 10.41675,10.41668v54.16658c0,5.753 -4.66375,10.41675 -10.41675,10.41675h-54.16658c-5.75298,0 -10.41668,-4.66375 -10.41668,-10.41675v-54.16658c0,-5.75298 4.6637,-10.41668 10.41668,-10.41668zM22.91668,16.66668c-3.4518,0 -6.25,2.7982 -6.25,6.25v54.16658c0,3.45175 2.7982,6.25 6.25,6.25h54.16658c3.45175,0 6.25,-2.79825 6.25,-6.25v-54.16658c0,-3.4518 -2.79825,-6.25 -6.25,-6.25zM63.11025,38.11025c0.8135,-0.81375 2.13275,-0.81375 2.94625,0c0.8135,0.8135 0.8135,2.13275 0,2.94625l-20.83325,20.83325c-0.81375,0.81375 -2.13275,0.81375 -2.9465,0l-8.33325,-8.33325c-0.8135,-0.8135 -0.8135,-2.13275 0,-2.94625c0.8135,-0.81375 2.13275,-0.81375 2.94625,0l6.86025,6.86025z"></path></g></g></svg>