<svg viewBox="0 0 120 120" fill="none" xmlns="http://www.w3.org/2000/svg">
    <path d="M77.5 72.5C77.5 75.2615 75.2615 77.5 72.5 77.5C69.7385 77.5 67.5 75.2615 67.5 72.5C67.5 69.7385 69.7385 67.5 72.5 67.5C75.2615 67.5 77.5 69.7385 77.5 72.5Z" fill="white"></path>
    <path d="M52.5 47.5C52.5 50.2615 50.2615 52.5 47.5 52.5C44.7385 52.5 42.5 50.2615 42.5 47.5C42.5 44.7385 44.7385 42.5 47.5 42.5C50.2615 42.5 52.5 44.7385 52.5 47.5Z" fill="white"></path>
    <path fill-rule="evenodd" clip-rule="evenodd" d="M77.6515 42.34825C79.116 43.81275 79.116 46.18725 77.6515 47.65175L47.65175 77.6515C46.18725 79.116 43.81275 79.116 42.34825 77.6515C40.884 76.187 40.884 73.813 42.34825 72.3485L72.3485 42.34825C73.813 40.884 76.187 40.884 77.6515 42.34825Z" fill="white"></path>
    <path fill-rule="evenodd" clip-rule="evenodd" d="M59.713 6.25H60.287C71.829 6.24995 80.874 6.2499 87.9315 7.19875C95.155 8.16995 100.8555 10.19665 105.3295 14.6707C109.8035 19.14475 111.83 24.84485 112.8015 32.0685C113.75 39.126 113.75 48.17125 113.75 59.713V60.287C113.75 71.829 113.75 80.874 112.8015 87.9315C111.83 95.155 109.8035 100.8555 105.3295 105.3295C100.8555 109.8035 95.155 111.83 87.9315 112.8015C80.874 113.75 71.829 113.75 60.287 113.75H59.713C48.17125 113.75 39.126 113.75 32.0685 112.8015C24.84485 111.83 19.14475 109.8035 14.6707 105.3295C10.19665 100.8555 8.16995 95.155 7.19875 87.9315C6.2499 80.874 6.24995 71.829 6.25 60.287V59.713C6.24995 48.17125 6.2499 39.126 7.19875 32.0685C8.16995 24.84485 10.19665 19.14475 14.6707 14.6707C19.14475 10.19665 24.84485 8.16995 32.0685 7.19875C39.126 6.2499 48.17125 6.24995 59.713 6.25ZM33.068 14.63185C26.67575 15.49125 22.82225 17.1257 19.974 19.974C17.1257 22.82225 15.49125 26.67575 14.63185 33.068C13.75795 39.56775 13.75 48.109 13.75 60C13.75 71.891 13.75795 80.432 14.63185 86.932C15.49125 93.324 17.1257 97.1775 19.974 100.026C22.82225 102.8745 26.67575 104.509 33.068 105.368C39.56775 106.242 48.109 106.25 60 106.25C71.891 106.25 80.432 106.242 86.932 105.368C93.324 104.509 97.1775 102.8745 100.026 100.026C102.8745 97.1775 104.509 93.324 105.368 86.932C106.242 80.432 106.25 71.891 106.25 60C106.25 48.109 106.242 39.56775 105.368 33.068C104.509 26.67575 102.8745 22.82225 100.026 19.974C97.1775 17.1257 93.324 15.49125 86.932 14.63185C80.432 13.75795 71.891 13.75 60 13.75C48.109 13.75 39.56775 13.75795 33.068 14.63185Z" fill="white"></path>
</svg>